<?xml version="1.0" encoding="UTF-8" standalone="no"?>
<!-- Created with Inkscape (http://www.inkscape.org/) -->

<svg
   version="1.1"
   id="svg2"
   width="373.33334"
   height="133.33333"
   viewBox="0 0 373.33334 133.33333"
   xmlns="http://www.w3.org/2000/svg"
   xmlns:svg="http://www.w3.org/2000/svg">
  <defs
     id="defs6" />
  <g
     id="g8">
    <path
       style="fill:#000000;stroke-width:0.533333"
       d="m 84.000001,132.75823 c -1.023781,-0.39985 -1.019866,-0.41811 0.09739,-0.45408 2.235178,-0.072 1.996778,-1.88799 -0.993521,-7.56812 -2.604426,-4.94716 -3.75576,-6.39526 -4.496064,-5.65495 -0.153738,0.15374 0.336614,1.49541 1.08967,2.98149 0.753056,1.48608 1.369189,2.82994 1.369189,2.98637 0,0.15641 -3.78,0.24404 -8.4,0.19474 -4.62,-0.0493 -7.480331,-0.18497 -6.356293,-0.30147 1.50625,-0.15611 1.966485,-0.41305 1.750069,-0.97701 -0.161499,-0.42086 -0.06116,-0.7652 0.22296,-0.7652 0.284128,0 0.516597,0.36 0.516597,0.8 0,1.11588 1.468214,1.00501 1.765691,-0.13334 0.232293,-0.88889 0.246853,-0.88889 0.305776,0 0.03696,0.55716 0.491787,0.93334 1.128533,0.93334 0.654139,0 1.072939,-0.36096 1.082886,-0.93334 0.01547,-0.88889 0.04208,-0.88889 0.559834,0 0.419174,0.71968 1.254043,0.93334 3.647014,0.93334 h 3.103397 l -1.396565,-2.93163 c -1.064528,-2.23462 -1.674384,-2.93203 -2.565088,-2.93333 -0.642688,-0.001 -1.316854,0.23829 -1.498144,0.53162 C 74.752044,119.76 74.137879,120 73.568524,120 c -0.569355,0 -1.035189,0.24 -1.035189,0.53333 0,0.29333 1.26,0.56739 2.8,0.60902 2.59104,0.07 2.651818,0.0999 0.814362,0.4 -1.969994,0.32176 -2.157792,1.13857 -0.414362,1.80224 0.554581,0.21111 0.45096,0.31744 -0.337798,0.34663 -0.711093,0.0263 -1.242405,-0.35792 -1.416736,-1.02456 C 73.806465,122.00764 73.251329,121.6 72.526204,121.6 c -0.886037,0 -1.094005,0.22872 -0.848624,0.93333 0.309563,0.88889 0.290432,0.88889 -0.401733,0 -0.83791,-1.07606 -1.986582,-1.25145 -1.746518,-0.26667 0.08939,0.36667 0.06185,0.48667 -0.06118,0.26667 -0.412213,-0.73709 -2.268144,-0.40979 -2.268144,0.4 0,0.6694 -0.979498,0.7843 -6,0.70387 -3.3,-0.0529 -4.80464,-0.18829 -3.343643,-0.30092 1.460998,-0.11262 2.837318,-0.48937 3.058502,-0.8372 0.302645,-0.47595 0.40416,-0.4662 0.410309,0.0394 0.0057,0.4645 0.789941,0.62909 2.541499,0.53333 3.719296,-0.20334 3.087376,-1.17907 -0.884768,-1.36615 -2.373675,-0.1118 -3.552672,0.0511 -3.858502,0.53334 -0.338026,0.53292 -0.442293,0.53934 -0.448565,0.0276 -0.0053,-0.43082 -0.836208,-0.66666 -2.348811,-0.66666 -2.252762,0 -2.353792,0.0701 -2.690832,1.86666 l -0.35019,1.86667 H 48.52591 c -4.011191,0 -4.710851,-0.12572 -4.452106,-0.8 0.33121,-0.8631 1.259534,-1.10332 1.259534,-0.32591 0,0.86872 6.832717,0.55646 7.582112,-0.34651 0.594251,-0.71602 0.4604,-0.7882 -1.050544,-0.56644 -0.952362,0.13978 -1.731568,0.0557 -1.731568,-0.18682 0,-0.24253 0.747992,-0.44097 1.662203,-0.44097 1.319248,0 1.612512,-0.19257 1.421355,-0.93333 -0.200623,-0.77745 0.152282,-0.94477 2.112928,-1.0018 1.294581,-0.0377 2.63497,-0.34994 2.978645,-0.69397 0.477915,-0.47839 0.09179,-0.54033 -1.641797,-0.26337 -1.540864,0.24618 -2.266667,0.16953 -2.266667,-0.23936 0,-0.33083 0.24,-0.6015 0.533333,-0.6015 0.293334,0 0.533334,-0.24 0.533334,-0.53333 0,-0.59318 -1.756784,-0.73211 -2.306484,-0.18241 -0.193011,0.19302 -0.110912,0.64014 0.182441,0.9936 0.397424,0.47887 0.208272,0.58052 -0.742111,0.39885 -0.701515,-0.1341 -1.437778,0.0188 -1.63614,0.33973 -0.201013,0.32525 -1.6e-5,0.58356 0.454079,0.58356 0.54759,0 0.700694,0.29719 0.466932,0.90637 -0.217547,0.56692 -0.427666,0.66679 -0.56104,0.26666 -0.305226,-0.91568 -2.618679,-0.79139 -2.983878,0.1603 -0.168844,0.44 -0.03452,0.8 0.298494,0.8 0.333016,0 0.432714,0.17277 0.22155,0.38394 -0.211164,0.21116 -1.811164,0.32768 -3.555556,0.25893 -3.045266,-0.12002 -3.47598,0.0962 -3.234779,1.6238 0.03474,0.22 -0.716842,0.36732 -1.670175,0.32737 -1.172406,-0.0491 -1.359592,-0.14551 -0.578427,-0.29785 0.635197,-0.12387 1.287665,-0.57119 1.449928,-0.99404 0.43107,-1.12335 -1.779161,-0.98849 -2.696345,0.16452 -0.568737,0.71497 -0.54863,0.44379 0.08594,-1.15909 0.455608,-1.15084 1.097446,-2.41664 1.426307,-2.81289 0.328861,-0.39625 0.45408,-0.86431 0.278264,-1.04013 -0.772108,-0.77211 -1.872068,0.5264 -4.223087,4.98537 -1.928201,3.65704 -2.369933,4.91939 -1.889542,5.39978 0.344828,0.34483 0.93896,0.62696 1.320293,0.62696 0.381333,0 0.693333,0.25417 0.693333,0.56481 0,0.31065 -0.266833,0.39989 -0.592961,0.19834 -0.326129,-0.20156 -0.802455,-0.0357 -1.058501,0.36852 -0.347679,0.54892 -0.467605,0.43917 -0.473704,-0.43353 -0.01099,-1.57247 -1.074407,-2.14831 -1.433247,-0.7761 -0.269981,1.03241 -0.361736,1.04681 -1.580747,0.24808 -1.565333,-1.02564 -2.407604,-0.48035 -0.955239,0.61843 0.565253,0.42764 0.764929,0.78516 0.443726,0.79449 -0.321204,0.009 -1.023533,-0.46871 -1.560732,-1.06231 -1.382004,-1.5271 -0.298215,-2.62101 1.457205,-1.47081 1.057742,0.69306 1.333698,0.70165 1.932916,0.0602 0.784396,-0.8397 5.398518,-9.28821 5.412373,-9.91011 0.0049,-0.22 -0.45146,-0.4 -1.014136,-0.4 -1.946026,0 -2.710286,-0.62097 -2.710286,-2.20214 0,-1.27973 0.448038,-1.83119 2.533333,-3.11812 1.393334,-0.85988 2.901989,-1.9225 3.352566,-2.36138 0.730879,-0.7119 0.83132,-0.65192 0.931303,0.55615 0.06164,0.74476 0.244015,1.5676 0.405281,1.82854 0.161267,0.26093 3.942181,0.37053 8.402032,0.24355 4.459848,-0.12698 8.948819,-0.20487 9.975485,-0.1731 10.142689,0.31392 16.984353,0.0938 17.785798,-0.57213 0.572117,-0.47541 0.880869,-0.52215 0.880869,-0.13334 0,0.32925 0.585835,0.59864 1.301856,0.59864 0.716022,0 1.428763,0.20533 1.583862,0.45629 0.155104,0.25096 -0.310736,0.34298 -1.03519,0.20449 -0.878858,-0.168 -1.319914,-0.009 -1.32536,0.47704 -0.0068,0.61103 -0.08351,0.60989 -0.47425,-0.007 -0.324582,-0.51247 -1.01024,-0.63137 -2.258496,-0.39166 -0.985835,0.18931 -4.372422,0.32477 -7.525755,0.301 -3.153333,-0.0238 -5.733334,0.10963 -5.733334,0.29642 0,0.1868 0.340715,0.68035 0.757142,1.09678 0.581093,0.58109 0.819322,0.60324 1.024565,0.0952 0.2116,-0.52375 0.276203,-0.52275 0.30952,0.005 0.02475,0.39173 0.756939,0.65967 1.77544,0.6497 1.639574,-0.0161 1.677334,-0.0593 0.698064,-0.8 -0.944341,-0.71426 -0.733546,-0.78177 2.4,-0.7686 l 3.43527,0.0144 -1.992166,1.85223 c -1.986394,1.84687 -2.937242,2.09603 -7.140955,1.87117 -1.865685,-0.0998 -5.533546,1.25058 -5.533546,2.03725 0,0.28085 0.42,0.41903 0.933333,0.30708 2.077328,-0.45304 6.533334,-0.54519 6.533334,-0.13512 0,0.86965 2.043605,0.40799 5.125088,-1.15778 3.274106,-1.66366 6.051216,-2.073 9.358266,-1.37939 1.591686,0.33383 2.147942,0.21107 3.027088,-0.66808 1.051222,-1.05122 3.289558,-1.06984 3.289558,-0.0274 0,0.25912 0.36,0.47113 0.8,0.47113 0.492405,0 0.776213,0.46139 0.738133,1.2 -0.04656,0.90302 -0.122229,0.96902 -0.305776,0.26667 -0.283157,-1.08354 -0.771877,-1.18048 -1.629184,-0.32318 -0.457989,0.45799 -0.535584,0.32498 -0.31113,-0.53333 0.410336,-1.56914 -1.079142,-1.52342 -1.841115,0.0565 -0.318304,0.66 -0.594982,0.93328 -0.614832,0.60729 -0.02048,-0.33625 -0.599424,-0.48502 -1.338022,-0.34383 l -1.30193,0.24888 2.480106,4.99267 c 2.228694,4.48655 2.603963,4.96158 3.701926,4.68601 1.034229,-0.25957 1.221824,-0.0979 1.221824,1.05301 0,0.74783 -0.249621,1.51396 -0.554709,1.70251 -0.363227,0.22449 -0.428432,-0.16031 -0.188886,-1.11474 0.4508,-1.79613 -0.502032,-1.37309 -1.832965,0.81381 -0.694645,1.14138 -1.124341,1.37107 -1.956773,1.04595 z M 44.771576,122 c 0.577955,-0.53646 0.63979,-0.52847 0.316579,0.0409 -0.300072,0.52861 -0.02675,0.6635 1.080628,0.53334 0.81526,-0.0958 1.5808,-0.47424 1.701199,-0.8409 0.159443,-0.48558 -0.686564,-0.66667 -3.114425,-0.66667 -1.833334,0 -3.193334,-0.14 -3.022223,-0.31111 0.171111,-0.17112 1.411111,-0.31112 2.755556,-0.31112 3.514018,0 3.023708,-0.82412 -0.539177,-0.90625 -2.565285,-0.0591 -3.022682,0.0806 -3.262204,0.99651 -0.15322,0.58591 -0.49059,1.0653 -0.749711,1.0653 -0.259122,0 -0.471131,0.24 -0.471131,0.53333 0,0.76947 4.452844,0.65755 5.304909,-0.13333 z m 27.228425,-1.44993 c 0,-0.28413 -0.36,-0.37845 -0.8,-0.20961 -0.44,0.16885 -0.8,0.40131 -0.8,0.5166 0,0.11528 0.36,0.2096 0.8,0.2096 0.44,0 0.8,-0.23247 0.8,-0.51659 z M 49.866668,120 c 0.186945,-0.30249 -0.261129,-0.53334 -1.035191,-0.53334 -0.750645,0 -1.364809,0.24 -1.364809,0.53334 0,0.29333 0.465835,0.53333 1.03519,0.53333 0.569356,0 1.183519,-0.24 1.36481,-0.53333 z m 8.310288,-1.06667 c 0.269338,0 0.489712,-0.25669 0.489712,-0.57043 0,-0.82897 -2.271275,-0.36656 -2.564331,0.52208 -0.173979,0.52757 0.02533,0.64682 0.668512,0.4 0.504016,-0.1934 1.136763,-0.35165 1.406107,-0.35165 z m 2.312757,0.20961 c 1.19168,-0.45729 1.048555,-1.27628 -0.223045,-1.27628 -0.592592,0 -1.066667,0.35556 -1.066667,0.8 0,0.89763 0.09768,0.93371 1.289712,0.47628 z m -14.76749,-0.53183 c -0.177222,-0.17722 -0.637222,-0.19617 -1.022222,-0.0421 -0.425458,0.17025 -0.299081,0.29663 0.322222,0.32222 0.562222,0.0231 0.877222,-0.1029 0.7,-0.28012 z m 3.76224,-0.34445 C 49.372028,117.9 48.221174,117.06 46.92701,116.4 l -2.353025,-1.2 h 2.536388 c 2.100575,0 2.50946,0.15704 2.379674,0.914 -0.09018,0.52597 0.239528,0.99541 0.776621,1.10577 0.574667,0.11808 0.933333,-0.13068 0.933333,-0.64734 0,-0.4615 0.232468,-0.8391 0.516595,-0.8391 0.284127,0 0.37845,0.36 0.209605,0.8 -0.215911,0.56266 0.04333,0.8 0.8738,0.8 0.799829,0 1.087211,-0.24387 0.890736,-0.75586 -0.159525,-0.41572 0.07442,-0.89572 0.519893,-1.06667 1.273718,-0.48877 1.438128,-0.37283 0.712006,0.50209 -1.002795,1.20829 -0.194272,1.60884 1.795301,0.8894 2.538629,-0.91798 3.964699,-0.78479 4.615397,0.43104 0.646635,1.20825 2.133334,1.44421 2.133334,0.33859 0,-1.35654 -2.22088,-3.6401 -3.272688,-3.36505 -0.546688,0.14296 -0.993979,0.0549 -0.993979,-0.19573 0,-0.25061 -0.68512,-0.21682 -1.522491,0.0751 -0.83737,0.29191 -4.25737,0.60473 -7.6,0.69515 -3.34263,0.0904 -6.975367,0.3384 -8.07275,0.55105 l -1.99524,0.38664 0.340768,-1.70384 c 0.320987,-1.60494 0.266535,-1.68123 -0.938093,-1.3143 -2.347423,0.71502 -4.819474,2.9422 -4.642684,4.1828 0.158479,1.1121 0.357655,1.14333 6.105833,0.95731 3.644717,-0.11794 6.325275,0.0305 6.933334,0.38378 1.327761,0.77158 1.923872,0.75089 1.675785,-0.0582 z m -11.184462,-2.36432 c 0.385,-0.15407 0.845,-0.13512 1.022222,0.0421 0.177222,0.17722 -0.137778,0.30327 -0.7,0.28012 -0.621303,-0.0256 -0.74768,-0.15197 -0.322222,-0.32222 z M 52.266668,118.4 c 0,-0.29334 -0.345836,-0.53334 -0.768525,-0.53334 -0.422688,0 -0.916852,0.24 -1.098142,0.53334 -0.18129,0.29333 0.164546,0.53333 0.768524,0.53333 0.603978,0 1.098143,-0.24 1.098143,-0.53333 z m 13.866667,-0.53334 c 0,-0.29333 -0.494166,-0.53333 -1.098145,-0.53333 -0.603978,0 -0.949813,0.24 -0.768522,0.53333 0.18129,0.29334 0.675456,0.53334 1.098144,0.53334 0.422688,0 0.768523,-0.24 0.768523,-0.53334 z m 3.2,0 c 0.607072,-0.39232 0.381984,-0.51897 -0.933334,-0.52516 -0.953333,-0.004 -1.733333,0.23183 -1.733333,0.52516 0,0.67744 1.618405,0.67744 2.666667,0 z m -9.456518,-0.88316 c -0.361083,-0.14609 -1.081083,-0.15499 -1.6,-0.0198 -0.518917,0.13522 -0.223483,0.25475 0.656517,0.26562 0.88,0.0109 1.304566,-0.0998 0.943483,-0.24586 z m 11.056518,-0.71684 c 0,-0.29333 -0.48,-0.53333 -1.066667,-0.53333 -0.586667,0 -1.066667,0.24 -1.066667,0.53333 0,0.29334 0.48,0.53334 1.066667,0.53334 0.586667,0 1.066667,-0.24 1.066667,-0.53334 z m 18.4,15.73334 c 0,-0.73334 0.18,-1.33334 0.4,-1.33334 0.22,0 0.4,0.6 0.4,1.33334 0,0.73333 -0.18,1.33333 -0.4,1.33333 -0.22,0 -0.4,-0.6 -0.4,-1.33333 z m -52.100001,0.43567 c 0.385,-0.15406 0.845,-0.13512 1.022222,0.0421 0.177222,0.17722 -0.137778,0.30328 -0.7,0.28012 -0.621303,-0.0256 -0.74768,-0.15197 -0.322222,-0.32222 z m 1.7,0.0349 c 0,-0.29334 0.35544,-0.99921 0.789865,-1.56861 0.68367,-0.89608 0.861835,-0.92771 1.325167,-0.23527 0.294416,0.44 0.535301,1.04 0.535301,1.33334 0,0.29333 -0.240885,0.17333 -0.535301,-0.26667 -0.463332,-0.69244 -0.641497,-0.66081 -1.325167,0.23527 -0.434425,0.5694 -0.789865,0.79527 -0.789865,0.50194 z m 4.666667,-0.0469 c 0.66,-0.12712 1.74,-0.12712 2.4,0 0.66,0.12712 0.12,0.23113 -1.2,0.23113 -1.32,0 -1.86,-0.10401 -1.2,-0.23113 z m 4.266667,-0.51016 c 0.366666,-0.14795 0.966666,-0.14795 1.333333,0 0.366667,0.14795 0.06667,0.26901 -0.666667,0.26901 -0.733333,0 -1.033333,-0.12106 -0.666666,-0.26901 z m 7.207333,-0.0295 c 0.810699,-0.12259 2.010699,-0.11931 2.666667,0.007 0.655968,0.12659 -0.0074,0.22689 -1.474,0.22289 -1.466667,-0.004 -2.003366,-0.10758 -1.192667,-0.23017 z m 18.13615,0.0131 c 0.518917,-0.13522 1.238917,-0.12633 1.6,0.0198 0.361082,0.14609 -0.06348,0.25673 -0.943483,0.24586 -0.88,-0.0109 -1.175435,-0.1304 -0.656517,-0.26562 z m 9.88985,-1.0614 c 0.384998,-0.15406 0.844998,-0.13512 1.022225,0.0421 0.177221,0.17722 -0.137782,0.30328 -0.700001,0.28012 -0.621306,-0.0256 -0.74768,-0.15197 -0.322224,-0.32222 z m -45.9,-1.62619 c 1.246666,-0.11228 3.286666,-0.11228 4.533333,0 1.246667,0.11229 0.226667,0.20416 -2.266667,0.20416 -2.493333,0 -3.513333,-0.0919 -2.266666,-0.20416 z m 13.895037,-0.008 c 3.02227,-0.0952 7.82227,-0.0949 10.666664,0.001 2.8444,0.0957 0.371632,0.17364 -5.495034,0.17316 -5.866667,-4.7e-4 -8.193901,-0.0788 -5.17163,-0.17401 z m 18.104963,0.008 c 1.246667,-0.11228 3.286667,-0.11228 4.533334,0 1.246666,0.11229 0.226666,0.20416 -2.266667,0.20416 -2.493333,0 -3.513333,-0.0919 -2.266667,-0.20416 z m 9.633334,0.0262 c 0.384997,-0.15406 0.844997,-0.13512 1.022224,0.0421 0.177221,0.17722 -0.137782,0.30328 -0.7,0.28012 -0.621307,-0.0256 -0.74768,-0.15197 -0.322224,-0.32222 z m 2.376816,-0.005 c 0.518917,-0.13522 1.238917,-0.12633 1.6,0.0198 0.361082,0.1461 -0.06348,0.25674 -0.943483,0.24587 -0.88,-0.0109 -1.175435,-0.1304 -0.656517,-0.26563 z m -30.01015,-1.69838 c 0,-0.25741 0.399293,-0.79741 0.887317,-1.2 0.804589,-0.66372 0.827702,-0.62008 0.247902,0.46804 -0.661285,1.24104 -1.135219,1.54663 -1.135219,0.73196 z m 5.217877,-2.59244 c 1.549835,-0.10808 3.949835,-0.10695 5.333334,0.003 1.383498,0.10947 0.115456,0.19789 -2.817878,0.1965 -2.933333,-0.002 -4.06529,-0.0909 -2.515456,-0.19902 z m 191.048792,-1.20619 c 0,-0.29333 0.43545,-0.53333 0.96768,-0.53333 0.77128,0 1.38063,-1.32597 3.00239,-6.53334 2.93871,-9.43597 2.83272,-8.87451 1.44372,-7.64771 -2.00593,1.7717 -1.96373,0.38343 0.0515,-1.69541 1.06114,-1.09461 2.08551,-2.62604 2.27636,-3.40318 0.22843,-0.93019 0.78741,-1.49716 1.63598,-1.65937 1.48393,-0.28368 1.44849,-0.34994 0.76886,1.43762 -0.48431,1.27385 -0.41348,1.36805 1.02857,1.36805 2.48427,0 3.37972,1.32581 3.10806,4.60176 -0.37863,4.56574 -3.83371,8.58948 -7.14056,8.31579 -1.33923,-0.11084 -1.75606,0.5041 -2.54134,3.74912 -0.26434,1.09237 -0.15619,1.46667 0.42377,1.46667 0.42828,0 0.92701,0.24 1.1083,0.53333 0.2059,0.33314 -0.88335,0.53333 -2.90185,0.53333 -1.79874,0 -3.23146,-0.23646 -3.23146,-0.53333 z m 9.79876,-8.54989 c 1.36603,-1.62343 2.45939,-4.60338 2.46493,-6.71814 0.004,-1.33746 -1.28549,-2.56564 -2.28866,-2.18068 -0.77126,0.29596 -3.69668,9.35374 -3.2529,10.07178 0.54002,0.87377 1.73908,0.41663 3.07663,-1.17296 z M 27.402668,120.2922 c -0.434616,-1.13259 0.30356,-2.0237 1.431952,-1.72862 0.539497,0.14108 1.066575,-5e-4 1.171285,-0.31463 0.325281,-0.97584 1.464166,0.14971 1.398895,1.38252 -0.05001,0.94456 -0.109662,0.98421 -0.311227,0.20687 -0.189796,-0.73195 -0.418467,-0.82131 -0.957318,-0.3741 -0.489283,0.40607 -0.814715,0.41482 -1.053582,0.0283 -0.603576,-0.97661 -1.484999,-0.60227 -1.194806,0.50743 0.321095,1.22787 -0.04219,1.44666 -0.485199,0.29221 z m 98.464002,-2.52468 c -1.02667,-0.29355 -2.54932,-0.51921 -3.38367,-0.50147 -1.08694,0.0231 -1.436,-0.17885 -1.23128,-0.71237 0.15716,-0.40953 0.44652,-1.60165 0.64303,-2.64914 0.35305,-1.88191 1.83859,-2.74121 1.83859,-1.06352 0,0.46257 0.73113,1.57216 1.62474,2.46577 1.40635,1.40635 1.89001,1.58169 3.59825,1.30449 1.08543,-0.17615 2.2743,-0.73161 2.64192,-1.23438 1.35475,-1.85272 0.76759,-3.4497 -2.53158,-6.88545 -2.82173,-2.93853 -3.2,-3.58449 -3.2,-5.46455 0,-1.72606 0.31248,-2.39503 1.64092,-3.512828 1.84889,-1.555738 4.06255,-1.767722 7.45689,-0.714074 2.12246,0.658837 2.14585,0.694357 1.9916,3.024972 -0.15702,2.37256 -1.48941,3.84423 -1.48941,1.64511 0,-1.41056 -2.75029,-4.270082 -4.10697,-4.270082 -1.49474,0 -3.3597,1.522662 -3.3597,2.743072 0,0.5982 1.44217,2.58445 3.22316,4.43917 2.28264,2.37713 3.2996,3.88102 3.48511,5.15384 0.63435,4.35215 -3.99736,7.61651 -8.8416,6.23144 z m 11.88554,-0.27349 c -0.19121,-0.49828 0.30787,-2.80673 1.10906,-5.12989 1.4236,-4.1279 1.46783,-5.82983 0.103,-3.96331 -0.74352,1.01683 -1.36427,1.21707 -1.36427,0.44009 0,-1.13906 2.82592,-3.77426 4.04741,-3.77426 1.67402,0 1.65554,0.83569 -0.1326,5.99747 -0.78705,2.27194 -1.26735,4.29444 -1.06734,4.49445 0.72032,0.72032 3.67157,-2.83658 5.49714,-6.62525 1.02594,-2.12917 2.20591,-3.86667 2.62594,-3.86667 0.9961,0 0.98775,0.0753 -0.56262,5.06667 -1.70547,5.49077 -1.70659,6.12914 -0.008,4.53333 1.61249,-1.51485 1.70972,-1.00157 0.25587,1.3508 -2.00882,3.25033 -3.9934,2.98114 -3.59008,-0.48697 l 0.25552,-2.19716 -2.5178,2.53333 c -2.63464,2.6509 -4.06633,3.15181 -4.65131,1.62737 z m 13.31446,0.35602 c -0.66,-0.2653 -1.2,-0.85762 -1.2,-1.31627 0,-1.27232 1.51541,-1.57566 2.66667,-0.53378 1.15284,1.0433 2.66666,0.73798 2.66666,-0.53784 0,-0.4609 -0.48,-1.77887 -1.06666,-2.92883 -2.1739,-4.26119 -0.96188,-7.46667 2.82323,-7.46667 2.30078,0 3.58274,1.55515 2.21659,2.68895 -0.66175,0.5492 -1.03567,0.45037 -2.10821,-0.55722 -1.21001,-1.13675 -1.33023,-1.1559 -1.6716,-0.2663 -0.20231,0.52719 -0.0886,1.64314 0.25274,2.47989 0.34132,0.83674 0.89722,2.19903 1.23534,3.02729 0.94,2.30268 0.18973,4.30186 -1.94994,5.19587 -2.07855,0.86847 -2.21935,0.8763 -3.86482,0.21491 z m 9.82222,0.19439 c -0.64095,-0.64094 -0.3758,-2.51211 0.96985,-6.84444 0.72889,-2.34667 1.32886,-4.32667 1.33326,-4.4 0.004,-0.0733 -0.492,-0.13334 -1.10311,-0.13334 -1.49429,0 -1.02481,-1.22226 0.61732,-1.60715 0.80489,-0.18865 1.35819,-0.74844 1.46422,-1.48137 0.12271,-0.84827 0.53621,-1.17814 1.47683,-1.17814 1.12717,0 1.26049,0.18291 0.97175,1.33333 -0.2777,1.10644 -0.14329,1.33333 0.78984,1.33333 0.64399,0 1.12449,0.34185 1.12449,0.8 0,0.52339 -0.52392,0.8 -1.51524,0.8 -1.44144,0 -1.58337,0.226 -2.91471,4.64085 -0.76971,2.55247 -1.30115,4.73917 -1.18097,4.85935 0.12018,0.12018 0.83418,-0.44582 1.58668,-1.25777 0.75249,-0.81196 1.50496,-1.33949 1.67215,-1.17229 0.52398,0.52398 -1.47108,3.08226 -3.03396,3.89046 -1.71158,0.88509 -1.77819,0.89739 -2.2584,0.41718 z M 168.64,117.76 c -1.71847,-1.71847 0.0766,-7.00991 3.55957,-10.4929 2.00538,-2.00538 2.36721,-2.1582 5.0344,-2.12634 l 2.87373,0.0344 -1.59729,5.02457 c -1.55215,4.88259 -1.58737,6.84373 -0.086,4.79054 0.40543,-0.55447 0.83295,-1.2741 0.95004,-1.59917 0.11709,-0.32506 0.38344,-0.43334 0.59189,-0.24059 0.58363,0.53963 -1.16574,3.53723 -2.62062,4.49051 -1.77864,1.16541 -2.5909,0.50679 -2.27343,-1.84343 l 0.26084,-1.93085 -2.26304,2.26666 c -2.34748,2.35124 -3.34076,2.71596 -4.43006,1.62667 z m 4.63481,-3.37483 c 1.85437,-2.11201 3.79186,-5.64479 3.79186,-6.914 0,-1.44042 -1.574,-1.5477 -3.01237,-0.20531 -0.74696,0.69711 -1.81474,2.15791 -2.37287,3.24622 -1.0423,2.03246 -1.38943,5.75458 -0.53667,5.75458 0.26294,0 1.22147,-0.84667 2.13005,-1.88149 z m 8.88941,3.60126 c -0.66165,-0.66164 -0.21482,-2.86916 1.30245,-6.43469 1.94275,-4.56539 1.96881,-4.88416 0.26877,-3.28705 -1.9969,1.87599 -2.18023,0.92715 -0.2464,-1.27535 1.74416,-1.9865 3.52455,-2.49571 4.03895,-1.1552 0.16198,0.42211 -0.56555,2.67232 -1.61674,5.00046 -2.29161,5.0754 -2.35988,5.74045 -0.34785,3.38869 2.05039,-2.39661 2.54212,-1.29711 0.6117,1.36775 -1.42768,1.97085 -3.31079,3.09549 -4.01088,2.39539 z m 14.45801,0.058 c -0.64962,-0.64962 -0.36951,-2.41006 0.97777,-6.14503 0.73334,-2.03298 1.33334,-4.04755 1.33334,-4.47683 0,-2.46712 -5.67966,4.45883 -6.92461,8.44408 -0.43763,1.40089 -0.93192,2 -1.65009,2 -1.27801,0 -1.2831,0.0815 0.31596,-5.06666 1.62705,-5.2383 1.68153,-6.33691 0.22766,-4.59112 -1.64704,1.97776 -1.89838,0.85708 -0.28282,-1.26103 0.95345,-1.25004 1.87308,-1.88119 2.74104,-1.88119 1.43206,0 1.55528,0.47183 0.80576,3.08529 l -0.50043,1.74491 2.3472,-2.4151 c 2.4382,-2.50873 4.78297,-3.20775 5.39653,-1.60882 0.17017,0.44345 -0.31736,2.49717 -1.0834,4.56384 -1.61049,4.34486 -1.83122,6.27192 -0.49978,4.36322 1.2015,-1.72243 2.07429,-1.48519 0.98106,0.26666 -0.97405,1.56087 -2.80551,3.33334 -3.44428,3.33334 -0.21195,0 -0.54536,-0.16 -0.74091,-0.35556 z m 6.68444,-0.28444 c -1.72484,-1.72485 0.52794,-8.06693 3.9249,-11.04951 1.5654,-1.37443 2.23877,-1.59876 4.71048,-1.56924 l 2.88399,0.0345 -1.77773,5.27882 c -1.23751,3.67467 -1.57273,5.27881 -1.10314,5.27881 0.37103,0 0.9957,-0.6 1.38817,-1.33333 0.67887,-1.26849 1.6,-1.80033 1.6,-0.92381 0,0.98022 -2.71124,4.27772 -3.73794,4.54621 -1.36301,0.35643 -1.8488,-0.62204 -1.40659,-2.83311 0.31125,-1.55626 0.28426,-1.54512 -1.97853,0.81646 -2.36077,2.46384 -3.39224,2.86561 -4.50361,1.75425 z m 4.2562,-2.96 c 1.75232,-1.8864 4.17047,-6.09802 4.17047,-7.2636 0,-1.49859 -1.54763,-1.63764 -3.01115,-0.27054 -2.22114,2.0748 -4.19025,6.615 -3.56999,8.23136 0.42031,1.09531 0.86501,0.96669 2.41067,-0.69722 z m 9.37047,3.02394 c -1.40408,-0.81779 -1.1563,-2.69364 1.42902,-10.81828 2.22043,-6.97799 2.29524,-7.409428 1.32861,-7.662206 -0.56336,-0.147323 -1.0243,-0.453163 -1.0243,-0.679638 0,-0.625578 3.80476,-1.205722 4.34757,-0.662912 0.27819,0.278187 -0.31771,2.671356 -1.43686,5.770536 l -1.91218,5.29522 2.09954,-2.04197 c 1.62667,-1.58206 2.44516,-2.00249 3.63407,-1.86667 1.24574,0.14232 1.56769,0.46589 1.71076,1.71939 0.40084,3.51209 -3.21247,9.35149 -6.6841,10.80203 -2.0318,0.84894 -2.26605,0.85863 -3.49213,0.1445 z m 3.9487,-1.69061 c 2.32851,-1.89487 4.84475,-7.95322 3.7556,-9.04237 -1.29341,-1.2934 -6.5043,5.62575 -6.5043,8.63656 0,1.22973 1.4696,1.4467 2.7487,0.40581 z m 7.47546,1.33333 c -0.26401,-0.51333 -0.41162,-1.17333 -0.32801,-1.46666 0.0836,-0.29334 1.16312,-3.9932 2.39891,-8.22192 2.04228,-6.98839 2.16758,-7.74659 1.37592,-8.325464 -0.47904,-0.350282 -0.87098,-0.763712 -0.87098,-0.918725 0,-0.503899 3.86071,-1.021275 4.26152,-0.571093 0.21409,0.240458 -0.77717,4.155182 -2.2028,8.699382 -2.92053,9.30917 -3.12288,10.56633 -1.35284,8.40448 0.66047,-0.80666 1.39944,-1.46666 1.64215,-1.46666 0.24272,0 0.0294,0.66 -0.47395,1.46666 -1.01675,1.62929 -2.81336,3.33334 -3.5144,3.33334 -0.25052,0 -0.6715,-0.42 -0.93552,-0.93334 z m 7.79728,0.36929 c -1.6889,-0.9846 -1.76027,-3.93551 -0.17363,-7.17849 1.79615,-3.67121 4.33671,-5.72874 6.78361,-5.49388 1.44459,0.13865 1.79763,0.41911 1.92715,1.53091 0.20245,1.73766 -1.34556,3.17694 -4.60512,4.28165 -2.29738,0.77862 -2.49941,0.9922 -2.65257,2.80429 -0.21435,2.53606 0.97329,3.07559 3.17954,1.44444 0.88189,-0.65201 1.724,-1.06489 1.87138,-0.91751 0.57557,0.57557 -0.93901,2.39666 -2.68063,3.22312 -2.11235,1.00237 -2.41139,1.0274 -3.64973,0.30547 z m 4.40988,-7.96929 c 0.26258,0 0.87863,-0.61232 1.369,-1.36072 0.64201,-0.97983 0.72928,-1.523 0.31178,-1.94051 -0.41751,-0.4175 -1.03684,-0.12275 -2.21261,1.05303 -1.75653,1.75652 -2.16924,3.1015 -0.7892,2.57193 0.46398,-0.17805 1.05845,-0.32373 1.32103,-0.32373 z m 33.70201,7.72159 c -2.50031,-1.76842 -1.08291,-8.72486 2.32371,-11.4045 1.57162,-1.23624 4.58318,-1.48686 5.41238,-0.45042 1.87519,2.34386 1.01611,6.76642 -1.94263,10.00071 -2.25861,2.46897 -4.09382,3.05633 -5.79346,1.85421 z m 4.49704,-3.18545 c 1.57383,-2.81173 2.60928,-7.10982 1.88686,-7.83224 -1.71257,-1.71256 -4.84126,2.82753 -5.3357,7.74267 -0.248,2.46529 -0.20364,2.57192 0.99839,2.4 0.81355,-0.11635 1.67918,-0.93251 2.45045,-2.31043 z m 5.60963,3.3572 c -1.69832,-1.69832 0.26668,-7.65015 3.55704,-10.77406 0.92129,-0.87468 2.48892,-1.68703 3.60593,-1.86859 1.76631,-0.28711 2.05931,-0.57085 2.75995,-2.67277 0.7258,-2.17742 0.71218,-2.40397 -0.18393,-3.059233 -1.20055,-0.877861 -1.02184,-1.061712 1.48768,-1.530475 2.60527,-0.486645 2.59989,-0.40465 -0.6306,9.611788 -1.41909,4.4 -2.46623,8.12 -2.32697,8.26667 0.13925,0.14667 0.82104,-0.44395 1.5151,-1.31249 1.775,-2.22121 2.30303,-1.25868 0.56183,1.02414 -1.88816,2.4755 -3.20542,3.17592 -4.05275,2.15495 -0.48754,-0.58745 -0.50065,-1.19287 -0.0536,-2.47528 0.32549,-0.93369 0.49263,-1.79679 0.37142,-1.918 -0.12121,-0.1212 -0.37377,0.26294 -0.56125,0.85364 -0.40049,1.26182 -3.75878,4.33971 -4.73508,4.33971 -0.37112,0 -0.96277,-0.288 -1.31477,-0.64 z m 5.73394,-5.00481 c 2.20621,-3.47883 2.95761,-5.50365 2.29007,-6.17118 -1.43216,-1.43216 -4.5246,1.73393 -5.96265,6.10465 -1.43448,4.35988 0.92274,4.40259 3.67258,0.0665 z m 8.15939,5.29159 c -0.98256,-0.39647 -0.8311,-1.60911 0.7402,-5.92623 1.40718,-3.8662 1.39087,-5.49972 -0.0355,-3.54912 -0.41299,0.56479 -0.92398,0.8538 -1.13553,0.64225 -0.72389,-0.72392 2.40553,-4.14702 3.79127,-4.14702 1.7177,0 1.69929,1.12485 -0.10147,6.1973 -0.77421,2.18084 -1.28857,4.08426 -1.143,4.22982 1.04208,1.04208 5.33643,-4.34886 6.32964,-7.94594 0.52198,-1.89046 1.73236,-3.01429 2.46132,-2.28532 0.1802,0.1802 -0.32794,2.51206 -1.12919,5.18192 -0.80126,2.66986 -1.32504,4.98607 -1.16397,5.14714 0.16107,0.16107 0.77087,-0.28114 1.35511,-0.9827 0.83106,-0.99792 1.06612,-1.08468 1.08,-0.39862 0.0237,1.17098 -2.98652,4.34611 -3.8404,4.05079 -0.41644,-0.14402 -0.65901,-1.13297 -0.63297,-2.58062 l 0.0422,-2.3471 -2.49936,2.53333 c -2.479,2.5127 -2.8316,2.69936 -4.1184,2.18012 z m 13.54933,-0.62211 c -1.27647,-1.41049 -1.08556,-4.27475 0.49657,-7.44965 1.60056,-3.21192 3.69267,-4.90836 6.05317,-4.90836 1.79488,0 2.73711,1.24382 1.71586,2.26508 -0.43561,0.43561 -0.93722,0.40935 -1.88663,-0.0988 -1.64256,-0.87907 -2.32956,-0.43683 -3.57212,2.29948 -1.10731,2.43848 -1.34371,5.93961 -0.43881,6.49887 0.32122,0.19853 1.30009,-0.16844 2.17526,-0.81548 2.37118,-1.75309 2.60468,-0.73969 0.3134,1.36012 -2.23609,2.04922 -3.56075,2.2807 -4.8567,0.8487 z m 9.26752,0.46369 c -0.6711,-0.42443 -0.54804,-1.2627 0.86003,-5.8585 1.53152,-4.9987 1.57569,-5.3632 0.64983,-5.3632 -0.54636,0 -0.99337,-0.36 -0.99337,-0.8 0,-0.4881 0.49728,-0.8 1.27551,-0.8 0.91576,0 1.3699,-0.37607 1.61016,-1.33333 0.24333,-0.96949 0.69211,-1.33333 1.64462,-1.33333 1.17693,0 1.25848,0.13541 0.80304,1.33333 -0.45611,1.19964 -0.37457,1.33333 0.8132,1.33333 0.8179,0 1.32013,0.30436 1.32013,0.8 0,0.53072 -0.53075,0.8 -1.57679,0.8 -1.50396,0 -1.63946,0.19836 -2.93334,4.2942 -1.7266,5.46567 -1.70378,5.83805 0.24347,3.97247 1.16991,-1.12085 1.6,-1.30588 1.6,-0.68836 0,0.80841 -3.35949,4.16383 -4.1519,4.14686 -0.20979,-0.004 -0.73386,-0.23105 -1.16459,-0.50347 z m 7.42989,-0.47318 c -1.05926,-0.86521 -1.18339,-1.20498 -0.64151,-1.75589 0.5455,-0.55458 0.98187,-0.49999 2.31956,0.29021 1.39786,0.82573 1.75882,0.86213 2.38086,0.24009 0.62203,-0.62203 0.53315,-1.16494 -0.58623,-3.58102 -1.60667,-3.46782 -1.66132,-5.06667 -0.22237,-6.50562 0.78799,-0.78799 1.63672,-1.05093 3.01265,-0.93334 2.18395,0.18665 3.47114,1.59622 2.41871,2.64864 -0.50793,0.50794 -0.9282,0.38402 -1.94853,-0.57452 -2.38194,-2.23773 -3.24315,-0.1809 -1.37988,3.29556 2.06989,3.86196 1.08499,6.92371 -2.45492,7.63169 -1.14037,0.22807 -1.95334,0.0161 -2.89834,-0.7558 z M 263.46675,117.2 c 3e-5,-0.36667 0.59643,-2.58667 1.32532,-4.93334 1.58035,-5.08791 1.6268,-5.71815 0.3047,-4.13333 -1.06051,1.27124 -1.6301,1.51849 -1.6301,0.70759 0,-0.9891 2.78995,-3.77426 3.78074,-3.77426 1.16552,0 1.32474,1.25484 0.45238,3.56528 -0.62093,1.64452 -0.36737,1.42686 1.82345,-1.56528 1.79927,-2.45737 4.07676,-2.8298 4.07676,-0.66666 0,1.14736 -0.24176,1.33425 -1.73333,1.33993 -2.03751,0.008 -3.20629,1.52272 -5.24105,6.7934 -0.90103,2.33393 -1.5675,3.33333 -2.2229,3.33333 -0.51483,0 -0.93602,-0.3 -0.93597,-0.66666 z M 22.941501,116.91659 c -0.0045,-0.37587 0.351833,-0.82155 0.791833,-0.99039 0.44,-0.16885 0.8,-0.65849 0.8,-1.0881 0,-0.53713 0.455012,-0.72754 1.45677,-0.60961 1.112874,0.13102 1.501204,-0.0803 1.644992,-0.89516 0.103522,-0.58667 0.467975,-1.31146 0.809897,-1.61065 0.969855,-0.84866 2.019864,-2.9196 1.723457,-3.39919 -0.147227,-0.23822 0.564642,-1.12712 1.581932,-1.97532 1.017291,-0.84821 1.849619,-1.96354 1.849619,-2.47852 0,-1.08483 0.22605,-1.1383 1.631788,-0.38597 0.842954,0.45113 1.013688,0.37902 0.947102,-0.4 -0.166015,-1.94229 0.109653,-2.81702 0.887776,-2.81702 0.44,0 0.8,0.23717 0.8,0.52705 0,0.28988 0.54,0.46988 1.2,0.4 1.174445,-0.12434 1.205679,-0.30309 1.466667,-8.393712 0.246258,-7.634005 0.341283,-8.253941 1.241645,-8.100389 0.98533,0.168042 3.122558,-1.728006 3.728896,-3.308096 0.181124,-0.472 0.636848,-0.854507 1.01272,-0.850016 0.511045,0.0061 0.495666,0.127045 -0.06098,0.479509 -0.40941,0.259237 -0.596943,0.855563 -0.416738,1.325168 0.232041,0.604688 0.02128,0.853824 -0.722285,0.853824 -1.134043,0 -1.442604,0.846885 -0.431373,1.183963 0.43889,0.146298 0.460328,0.488922 0.0738,1.1796 -0.364648,0.651589 -0.667722,0.774442 -0.916697,0.371594 -0.20457,-0.331002 -0.988361,-0.601824 -1.741758,-0.601824 H 40.93076 l 0.23214,12.234805 c 0.127678,6.729144 0.07755,12.139264 -0.111389,12.022494 -0.188943,-0.11677 -0.382101,-1.36244 -0.42924,-2.76814 -0.111527,-3.32574 -0.583684,-5.48916 -1.19798,-5.48916 -0.270026,0 -0.49859,0.42 -0.507919,0.93333 -0.01571,0.86454 -0.07207,0.8606 -0.764515,-0.0534 -0.978302,-1.29132 -1.811535,-0.73507 -1.481903,0.98929 0.194624,1.01811 0.501446,1.28479 1.216925,1.0577 0.526178,-0.167 1.10935,-0.0566 1.295938,0.24528 0.196753,0.31835 0.01425,0.4242 -0.434503,0.252 -0.425564,-0.1633 -0.934613,-0.0366 -1.131219,0.28148 -0.196606,0.31811 -0.580882,0.44031 -0.853947,0.27154 -0.273064,-0.16876 -0.496481,-0.0587 -0.496481,0.24464 0,0.32213 -0.633479,0.42478 -1.523247,0.24682 -1.101394,-0.22027 -1.61372,-0.0689 -1.849928,0.54667 -0.179675,0.46822 -0.664214,0.85132 -1.076753,0.85132 -0.853376,0 -1.644055,2.68641 -1.491249,5.06666 0.09712,1.51278 0.05913,1.54466 -0.696711,0.5848 -0.749608,-0.95193 -0.821802,-0.95688 -1.158485,-0.0795 -0.214441,0.55882 -0.05924,1.12553 0.385324,1.40703 0.595825,0.37727 0.558116,0.47297 -0.188951,0.47951 -0.513333,0.004 -0.933333,0.40536 -0.933333,0.89083 0,0.82132 -0.06778,0.82132 -0.975329,0 -1.304916,-1.18094 -1.836508,-1.11358 -1.425736,0.18065 0.265837,0.83757 0.148817,0.99091 -0.55122,0.72228 -0.507298,-0.19467 -1.090986,-0.0215 -1.360042,0.40335 -0.352464,0.55665 -0.473399,0.57202 -0.479506,0.061 z M 35.733334,104.8653 c 0,-0.11075 -0.36,-0.50013 -0.8,-0.8653 -0.655204,-0.54377 -0.8,-0.50733 -0.8,0.20136 0,0.47592 0.36,0.8653 0.8,0.8653 0.44,0 0.8,-0.0906 0.8,-0.20136 z m 48.212731,9.28876 c -0.848645,-2.12098 -4.776005,-6.09665 -5.55001,-5.61829 -0.227526,0.14062 -0.509563,-0.56557 -0.626742,-1.56931 -0.117178,-1.00373 -0.0232,-1.70765 0.208816,-1.56424 0.232032,0.1434 0.421872,0.71039 0.421872,1.25998 0,0.54959 0.471451,1.14889 1.04767,1.33177 1.61585,0.51285 5.205824,4.89937 5.467205,6.68028 0.315654,2.15066 0.0408,2.00308 -0.968811,-0.52019 z m 6.720603,1.37791 c 0,-1.03432 -0.60328,-1.1128 -1.526885,-0.19864 -0.542107,0.53656 -0.562816,0.37339 -0.106139,-0.83611 0.533243,-1.41228 0.49512,-1.48027 -0.633114,-1.12912 -1.158566,0.3606 -1.167904,0.33709 -0.267195,-0.67255 1.408971,-1.57937 1.191392,-2.37864 -0.533333,-1.95919 -1.42672,0.34698 -1.441243,0.32795 -0.533334,-0.6985 1.898592,-2.14647 0.734379,-3.74336 -1.498064,-2.05482 -1.523509,1.15232 -2.012288,0.98334 -1.065509,-0.36838 0.456629,-0.65193 0.83024,-1.49193 0.83024,-1.86667 0,-0.93249 -1.321968,-0.85896 -2.133334,0.11867 -0.365168,0.44 -0.934554,0.79202 -1.265301,0.78226 -0.330752,-0.01 -0.01515,-0.50566 0.70136,-1.10201 0.716501,-0.59634 1.74231,-0.96931 2.279579,-0.82881 0.718747,0.18796 1.254229,-0.28825 2.02664,-1.8023 1.404133,-2.75233 0.478283,-3.146016 -1.566032,-0.66591 -1.795584,2.17836 -2.121851,1.86981 -0.687221,-0.64989 0.570869,-1.00266 1.340992,-1.600002 2.062784,-1.600002 1.826981,0 1.938954,0.540302 0.624821,3.014982 -2.199909,4.14272 -2.204251,4.19054 -0.346965,3.81909 1.598165,-0.31964 1.641013,-0.27833 1.401818,1.35144 -0.159749,1.08842 -0.02128,1.68115 0.39272,1.68115 0.351707,0 0.792336,0.95598 0.979174,2.1244 0.26897,1.68206 0.616314,2.19382 1.668165,2.45782 0.730651,0.18338 1.328459,0.5874 1.328459,0.89782 0,0.31043 -0.15792,0.40649 -0.350928,0.21348 -0.193014,-0.19301 -0.673014,-0.0836 -1.066667,0.24308 -0.548747,0.45542 -0.715739,0.39212 -0.715739,-0.27129 z m -58.133334,-2.43383 c 0,-0.27602 0.237251,-0.64849 0.527224,-0.8277 0.302326,-0.18685 0.391738,0.0273 0.209606,0.50186 -0.354555,0.92395 -0.73683,1.093 -0.73683,0.32584 z m -1.866667,-1.63148 c -0.18129,-0.29333 0.04454,-0.53333 0.501858,-0.53333 0.457311,0 0.831476,0.24 0.831476,0.53333 0,0.29334 -0.225836,0.53334 -0.501858,0.53334 -0.276022,0 -0.650186,-0.24 -0.831476,-0.53334 z m 12,-11.746529 V 87.440264 l 1.368054,-0.520133 c 0.752429,-0.286074 1.952429,-0.520133 2.666667,-0.520133 1.038594,0 1.298613,0.274064 1.298613,1.368757 0,1.178549 0.203817,1.345307 1.466667,1.2 1.492399,-0.171717 1.677525,-0.722917 0.952309,-2.835424 -0.337111,-0.981984 -0.317225,-0.990218 0.250473,-0.10376 0.486663,0.759925 0.77622,0.83048 1.373603,0.334699 0.496458,-0.412027 0.756948,-0.433035 0.756948,-0.06105 0,0.311936 -0.243915,0.717909 -0.542033,0.902155 -0.298118,0.184245 -0.396752,0.570064 -0.219185,0.857376 0.437466,0.707834 1.827885,-0.481339 1.827885,-1.563323 0,-0.66976 0.156186,-0.630138 0.78304,0.198635 0.696197,0.920458 0.784917,0.933621 0.8,0.118672 0.01099,-0.592565 0.29977,-0.808069 0.81696,-0.609605 0.971466,0.372789 1.049706,-0.408907 0.133333,-1.332064 -0.534347,-0.538299 -0.492128,-0.605179 0.21272,-0.336971 0.483664,0.184043 1.038875,0.07657 1.233803,-0.238837 0.194928,-0.315403 -0.02693,-0.719792 -0.492998,-0.898646 -0.64136,-0.246112 -0.703258,-0.49888 -0.254554,-1.039536 0.326069,-0.39289 0.438032,-0.964864 0.2488,-1.27105 -0.481136,-0.778496 -2.802315,-0.696886 -3.127888,0.109973 -0.147952,0.366667 -0.287952,0.0067 -0.31111,-0.8 -0.02795,-0.97408 -0.329957,-1.466667 -0.899167,-1.466667 -0.542716,0 -0.744466,0.293419 -0.550072,0.8 0.364542,0.949984 0.100965,0.994784 -1.334092,0.226763 -0.886011,-0.474176 -1.118305,-0.39272 -1.344272,0.471376 -0.181892,0.695557 -0.597746,0.959728 -1.244529,0.790592 -0.920989,-0.240843 -0.916046,-0.309323 0.09531,-1.320683 0.64142,-0.641418 1.485262,-0.9572 2.116649,-0.79209 0.622563,0.162805 1.168483,-0.03424 1.341085,-0.484022 0.383284,-0.998821 1.728368,-0.972522 2.117446,0.04139 0.168848,0.44 0.792234,0.8 1.385306,0.8 0.992315,0 1.04872,-0.22312 0.707216,-2.797477 -0.543386,-4.096251 -2.464778,-5.780256 -4.393947,-3.851088 -0.469543,0.469547 -1.248622,0.681461 -1.828571,0.497397 -0.601605,-0.190933 -1.010468,-0.06634 -1.010468,0.307925 0,0.429584 -0.591061,0.517744 -1.866667,0.278443 -1.446865,-0.271435 -1.866667,-0.173547 -1.866667,0.435269 0,1.209547 -2.680695,3.115174 -3.46571,2.46367 -0.356539,-0.295904 -1.416508,-0.384352 -2.355486,-0.196555 -1.450337,0.290064 -1.752662,0.167728 -2.009134,-0.813019 -0.227325,-0.869296 -0.581986,-1.079408 -1.435785,-0.850597 -0.946107,0.253552 -0.913078,0.173851 0.199448,-0.481264 1.2014,-0.70744 1.351649,-0.696448 1.518435,0.111088 0.32598,1.578325 1.040158,1.889707 2.356282,1.027349 1.149145,-0.752944 1.314687,-0.74808 1.83902,0.05405 0.811655,1.241685 2.499178,0.15976 2.725733,-1.747558 0.110992,-0.93441 0.421598,-1.359317 0.868344,-1.187887 0.382548,0.1468 0.964786,-0.0021 1.293864,-0.331414 0.442208,-0.442213 0.598323,-0.36176 0.598323,0.308342 0,1.271994 1.107171,1.133642 1.451042,-0.181323 0.266945,-1.020795 0.345056,-1.033195 1.264832,-0.200811 0.924056,0.836256 1.0173,0.806006 1.624725,-0.527146 0.403857,-0.886368 0.78411,-1.188278 1.018653,-0.808784 0.546289,0.88392 2.640748,0.05699 2.640748,-1.042608 0,-0.887254 -1.547862,-3.428827 -1.58304,-2.599328 -0.02123,0.500416 -1.346887,-0.608992 -5.510943,-4.61191 l -3.271854,-3.145247 -0.557445,1.363781 c -0.474531,1.160933 -0.691419,1.265813 -1.458195,0.70513 -0.604751,-0.442202 -0.794324,-1.065626 -0.576883,-1.897119 0.293511,-1.12239 0.190107,-1.204907 -1.103163,-0.880315 -0.784867,0.196987 -1.870011,0.121088 -2.411432,-0.168672 -0.671912,-0.359595 -1.528625,-0.321413 -2.698818,0.120283 -1.516183,0.572298 -1.801937,0.527434 -2.471323,-0.388006 -0.416297,-0.569322 -0.750519,-1.409258 -0.742713,-1.866528 0.0088,-0.51536 0.359853,-0.273882 0.923529,0.63527 1.091758,1.76089 1.410663,1.795205 3.244824,0.34912 1.221024,-0.962678 1.441352,-0.999632 1.589895,-0.266667 0.193366,0.954139 2.497658,1.174949 3.043566,0.291648 0.236272,-0.382293 0.583713,-0.361632 1.098143,0.06531 0.577102,0.478949 0.939003,0.469765 1.552518,-0.03941 0.44,-0.365168 0.8,-0.485168 0.8,-0.266666 0,0.218501 0.338634,0.116234 0.752519,-0.227259 0.548278,-0.455035 0.852152,-0.463328 1.119615,-0.03056 0.252541,0.408624 0.683432,0.307696 1.380814,-0.323424 0.966712,-0.874864 1.013719,-0.863312 1.013719,0.249109 0,0.711243 0.468336,1.354758 1.2,1.648854 1.132098,0.455045 1.138134,0.48425 0.106667,0.516144 -0.601334,0.01861 -1.381334,-0.254192 -1.733334,-0.606192 -0.497777,-0.497776 -0.64,-0.464859 -0.64,0.148138 0,1.344128 4.906491,4.819019 6.19232,4.385547 0.384998,-0.129787 0.517328,-1.452864 0.37807,-3.780016 -0.2684,-4.485141 -0.605963,-6.103707 -1.196806,-5.738544 -0.254,0.156976 -0.599429,-0.07321 -0.767626,-0.511522 -0.168198,-0.438315 -0.643959,-0.796937 -1.057248,-0.796937 -0.41329,0 -1.022921,-0.32712 -1.354736,-0.726933 -0.49097,-0.591582 -0.329348,-0.6764 0.868029,-0.455537 0.809232,0.149268 1.663256,0.596388 1.897832,0.9936 0.234576,0.397212 0.954576,0.725879 1.6,0.730371 0.645424,0.0045 1.533499,0.254499 1.973499,0.555571 0.658981,0.450912 0.611978,0.519984 -0.266667,0.391835 -1.015147,-0.148059 -1.059765,0.108464 -0.923835,5.311093 0.111014,4.248667 -0.01424,5.466667 -0.56225,5.466667 -0.908176,0 -5.021346,-2.675814 -6.913915,-4.49784 -1.036526,-0.997888 -1.466667,-1.176485 -1.466667,-0.608971 0,1.157269 2.967731,4.367451 5.816062,6.2912 1.347832,0.910325 2.544872,1.730512 2.660093,1.822635 0.238309,0.190549 2.231829,12.027237 2.367904,14.059642 0.04912,0.733333 0.373093,1.634299 0.719989,2.002139 0.632715,0.670933 2.490512,0.654416 3.173136,-0.02821 0.200571,-0.20057 0.654912,-0.123792 1.009648,0.170614 1.09744,0.910794 1.687851,-0.547462 2.055899,-5.077872 0.19064,-2.346667 0.489515,-4.80096 0.664166,-5.453984 0.324522,-1.213408 4.717669,-4.062272 5.73921,-3.72176 0.305616,0.101872 -0.198426,0.519013 -1.12009,0.926981 -0.921664,0.407968 -1.555222,0.936784 -1.40791,1.175142 0.147318,0.238362 0.07001,0.399013 -0.171797,0.357013 -1.318715,-0.229083 -2.306309,0.148357 -2.306309,0.881419 0,0.457312 0.222842,0.693749 0.495205,0.525423 0.272357,-0.16833 0.572357,0.218704 0.666667,0.86008 0.22425,1.525147 1.323386,1.86144 1.744757,0.533824 0.217035,-0.683818 0.665045,-0.953749 1.305141,-0.786357 0.67663,0.176939 1.095958,-0.125211 1.371312,-0.988117 0.344016,-1.078059 0.43072,-1.113952 0.65343,-0.270501 0.150746,0.570901 0.567877,0.853114 1.010133,0.683402 0.432992,-0.166154 0.753355,0.036 0.753355,0.475408 0,1.120064 1.820762,1.967931 2.58496,1.203733 0.338272,-0.338272 0.61504,-0.956426 0.61504,-1.373674 0,-0.630181 0.142346,-0.640501 0.84065,-0.06097 0.680166,0.564491 0.921056,0.567574 1.261856,0.01616 0.340251,-0.550538 0.640315,-0.544693 1.561195,0.0304 1.594533,0.995803 3.003616,0.01163 3.000821,-2.095914 -0.0016,-1.357845 0.189403,-1.596544 1.193153,-1.489525 0.657413,0.07009 1.637274,0.527424 2.177472,1.016293 1.240293,1.122453 1.698186,1.124123 1.698186,0.0062 0,-0.796555 0.103078,-0.789376 1.056662,0.07361 1.443813,1.306635 2.905066,0.202725 2.406549,-1.818037 -0.272955,-1.106454 -0.207152,-1.24352 0.339051,-0.70624 0.943669,0.92825 1.531072,0.831568 1.531072,-0.252006 0,-0.755136 0.147792,-0.707664 0.83024,0.266667 1.065306,1.520939 2.603477,1.603339 2.215226,0.118672 -0.198458,-0.758907 -0.01637,-1.066667 0.631131,-1.066667 0.500539,0 1.198069,-0.288 1.550069,-0.64 0.455472,-0.455466 0.640002,-0.465829 0.640002,-0.03595 0,0.332234 -0.422151,0.738042 -0.938103,0.901802 -0.515957,0.16376 -1.184741,0.839931 -1.486187,1.502608 -0.301445,0.662678 -0.899301,1.112059 -1.328565,0.99863 -2.676757,-0.707307 -2.983669,-0.649936 -3.585131,0.670122 -0.526309,1.155126 -0.942245,1.33919 -2.904805,1.285462 -1.259803,-0.03451 -2.695419,-0.405712 -3.190272,-0.824939 -1.072368,-0.908485 -2.033605,-0.457093 -2.033605,0.954976 0,1.268538 -1.840123,2.301024 -3.526433,1.978666 -0.700464,-0.133904 -1.273568,-0.0087 -1.273568,0.278118 0,0.286869 -0.471173,0.398362 -1.047056,0.24777 -0.575882,-0.150597 -1.325269,0.06141 -1.665306,0.471126 -0.858416,1.034336 -1.949403,0.931098 -3.561552,-0.337019 -0.94256,-0.741419 -1.548171,-0.909285 -1.924123,-0.533333 -0.301744,0.301744 -0.894171,0.548629 -1.316501,0.548629 -0.422326,0 -1.094486,0.42 -1.493686,0.933333 -0.681104,0.87583 -0.792336,0.854747 -1.805466,-0.342218 -0.593808,-0.701558 -1.1888,-1.166406 -1.322208,-1.032998 -0.133403,0.133408 -0.402811,2.327408 -0.598678,4.875558 l -0.356117,4.632992 h 2.66488 c 1.46568,0 4.501088,0.155216 6.745344,0.344928 l 4.080469,0.344922 v 5.640411 c 0,5.257082 0.05643,5.559856 0.83024,4.455077 1.065275,-1.520891 1.84671,-1.514523 1.798939,0.01467 -0.03563,1.141424 -0.05902,1.147936 -0.47872,0.133333 -0.787573,-1.903931 -2.309701,2.605835 -2.027616,6.007433 0.131664,1.58766 0.04256,2.53487 -0.202208,2.14907 -0.240699,-0.37941 -0.441312,-4.555026 -0.445803,-9.279148 l -0.0082,-8.589323 -3.6,-0.278693 c -1.98,-0.153285 -6.54,-0.323355 -10.133334,-0.377941 -5.612282,-0.08525 -6.533333,0.01835 -6.533333,0.734677 0,0.715797 1.114315,0.842859 7.866667,0.897019 4.326667,0.03472 8.586667,0.224501 9.466667,0.421765 0.88,0.197258 -2.54,0.25817 -7.6,0.135349 -5.060001,-0.122821 -9.200001,-0.08113 -9.200001,0.09266 0,0.173781 1.106294,2.138181 2.458432,4.365339 1.352139,2.227152 2.360331,4.147472 2.240432,4.267376 -0.119904,0.119898 -1.392112,-1.813803 -2.827136,-4.297126 -1.435018,-2.483317 -2.780533,-4.515125 -2.990026,-4.515125 -1.02351,0 -4.667923,2.380528 -4.419837,2.887035 0.156147,0.3188 -0.08729,0.122794 -0.540971,-0.435568 -0.744753,-0.916587 -0.857745,-0.929542 -1.163278,-0.133334 -0.452088,1.178123 -1.388623,1.111403 -3.080541,-0.219456 -0.77006,-0.605733 -1.679508,-0.92865 -2.020996,-0.7176 -0.401566,0.248182 -0.476672,0.150384 -0.212622,-0.276858 0.289372,-0.468214 0.04157,-0.608699 -0.850928,-0.482406 l -1.259196,0.178187 -0.143537,11.866667 -0.143536,11.866664 h 5.87687 c 3.232279,0 5.87687,-0.0867 5.87687,-0.19276 0,-0.10603 -1.158762,-1.96603 -2.575023,-4.13334 -3.132738,-4.79403 -3.417096,-5.2739 -3.125213,-5.2739 0.126161,0 1.624434,2.16 3.329496,4.8 l 3.100111,4.8 h 9.768651 c 9.753877,0 9.768752,-0.002 9.839563,-1.2 0.03899,-0.66 0.235162,-5.88 0.435914,-11.599998 l 0.364998,-10.4 0.09742,11.866668 L 76.266668,112 h -16.8 -16.800001 z m 1.6,-39.453466 c 0,-0.293333 -0.105835,-0.533333 -0.23519,-0.533333 -0.129356,0 -0.383519,0.24 -0.56481,0.533333 -0.18129,0.293333 -0.07545,0.533333 0.235191,0.533333 0.310645,0 0.564809,-0.24 0.564809,-0.533333 z m 33.608166,50.266665 c 0.0059,-1.06741 0.137696,-1.26205 0.48399,-0.71503 0.261701,0.4134 0.352352,1.0734 0.20144,1.46667 -0.432779,1.1278 -0.694299,0.84102 -0.68543,-0.75164 z m -42.099394,-2.87627 c -0.04493,-0.93506 1.333101,-1.72561 2.139357,-1.22732 0.266863,0.16493 0.466257,0.70571 0.4431,1.20173 -0.02593,0.5553 -0.14548,0.64567 -0.311112,0.23519 C 37.898831,107.5 37.457778,107.2 37.066667,107.2 c -0.391111,0 -0.832163,0.3 -0.980116,0.66666 -0.169872,0.42099 -0.284523,0.34375 -0.311112,-0.2096 z m 44.267384,-2.5904 c 0.777498,-1.63255 1.023845,-1.93511 1.023845,-1.25749 0,0.28616 -0.373237,0.98616 -0.829424,1.55556 -0.782064,0.97616 -0.793168,0.95914 -0.194421,-0.29807 z m 1.253952,-2.93333 c 0.812149,-2.198847 0.988026,-4.533332 0.341536,-4.533332 -0.34903,0 -0.486267,-0.24 -0.304976,-0.533334 0.622773,-1.007669 1.333333,-0.531792 1.333333,0.892966 v 1.426304 l 1.234373,-1.159638 c 1.587265,-1.491152 2.515259,-1.475781 2.437094,0.04037 -0.04885,0.948122 -0.114256,0.997904 -0.311456,0.237152 -0.372853,-1.438352 -1.290096,-0.86664 -3.308614,2.062232 -0.9984,1.44867 -1.637978,2.15395 -1.42129,1.56729 z m -2.313238,-0.26667 c -0.01872,-0.44 0.28223,-1.85762 0.668747,-3.150278 0.533184,-1.783152 0.790837,-2.120747 1.067771,-1.399067 0.200762,0.523168 0.153098,1.220795 -0.105904,1.550283 -0.259008,0.329488 -0.724203,1.319062 -1.033766,2.199062 -0.309562,0.88 -0.578144,1.24 -0.596848,0.8 z m 107.763623,-1.23634 c -0.7746,-0.933346 0.6868,-3.11173 1.80077,-2.684258 0.94823,0.363872 1.02768,1.864997 0.14541,2.747268 -0.81965,0.81964 -1.22452,0.80654 -1.94618,-0.063 z M 138.62488,86.321902 c -0.91367,-1.7072 -0.27411,-5.525403 1.33206,-7.952485 2.49038,-3.763222 6.579,-5.406768 7.79554,-3.133654 1.05772,1.976379 -1.37482,4.514998 -5.05141,5.271675 -2.62632,0.540523 -3.13779,4.825893 -0.57598,4.825893 0.66604,0 1.50974,-0.36 1.87491,-0.8 0.36517,-0.44 1.00009,-0.8 1.41094,-0.8 0.61975,0 0.60735,0.21312 -0.0728,1.251131 -1.64906,2.516789 -5.65499,3.314864 -6.71327,1.33744 z m 5.78978,-7.685477 c 1.31951,-0.924224 1.60856,-2.903094 0.42405,-2.903094 -0.77087,0 -2.97204,2.42327 -2.97204,3.271926 0,0.722778 1.24727,0.542234 2.54799,-0.368832 z m 4.05031,8.04441 c -0.16585,-0.432208 0.80168,-4.478992 2.15008,-8.992853 1.34839,-4.513861 2.45162,-8.360234 2.45162,-8.547498 0,-0.18727 -0.36,-0.340486 -0.8,-0.340486 -0.44,0 -0.8,-0.233136 -0.8,-0.518085 0,-0.713456 3.35,-1.572571 3.96445,-1.016688 0.30151,0.272779 -0.56722,3.923488 -2.20335,9.259221 -1.48561,4.844885 -2.50963,8.808885 -2.2756,8.808885 0.23405,0 0.91794,-0.66 1.51978,-1.466666 0.80413,-1.077798 1.09874,-1.230054 1.11116,-0.574256 0.0247,1.304389 -2.57452,4.174255 -3.78059,4.174255 -0.5698,0 -1.17169,-0.353626 -1.33755,-0.785829 z m 7.26837,-0.491658 c 0,-0.702619 0.73586,-3.006752 1.63525,-5.120294 1.73809,-4.084442 1.73656,-5.234704 -0.004,-3.144437 -0.83105,0.99792 -1.06612,1.084683 -1.08,0.398624 -0.0261,-1.29032 2.9911,-4.304763 4.09577,-4.092027 1.53971,0.296523 1.39978,1.782459 -0.57868,6.145424 -1.99608,4.401814 -2.04646,5.616779 -0.13366,3.223531 1.16486,-1.457451 1.93216,-1.866219 1.93216,-1.029333 0,0.240533 -0.85871,1.440533 -1.90823,2.666666 -2.16876,2.533819 -3.95835,2.964139 -3.95835,0.951846 z m 7.57333,0.637487 c -1.6704,-1.670399 0.52447,-7.490101 4.00973,-10.631797 1.88274,-1.697152 2.49069,-1.938458 4.88369,-1.938458 1.50328,0 2.73325,0.04731 2.73325,0.105082 0,0.05779 -0.72,2.23512 -1.6,4.838507 -1.97136,5.832043 -2.03264,6.929845 -0.2754,4.933333 1.35793,-1.542821 1.8754,-1.805472 1.8754,-0.951893 0,1.028144 -3.33835,4.285226 -4.39214,4.285226 -0.95733,0 -1.04815,-0.249728 -0.7902,-2.172842 l 0.29144,-2.172843 -2.00596,2.172843 c -2.03129,2.200288 -3.56525,2.697408 -4.72981,1.532842 z m 4.65054,-3.132421 c 1.9096,-2.090746 4.01721,-6.563381 3.60231,-7.644592 -0.96536,-2.515701 -5.62344,2.705446 -6.0876,6.823472 -0.33365,2.960048 0.33109,3.17967 2.48529,0.82112 z m 8.68279,3.132421 c -0.99778,-0.997786 -0.78106,-2.294394 1.72045,-10.293333 2.28242,-7.298378 2.31044,-7.475941 1.2432,-7.878122 -0.60051,-0.226304 -0.95601,-0.547291 -0.79,-0.713307 0.61537,-0.615365 4.13224,-1.153077 4.42659,-0.6768 0.16567,0.268064 -0.56415,2.920822 -1.62183,5.895019 l -1.92305,5.407626 2.18321,-2.249653 c 1.67851,-1.729579 2.51514,-2.211328 3.619,-2.083872 1.35398,0.156331 1.43465,0.321856 1.41622,2.905877 -0.0149,2.0904 -0.39822,3.352598 -1.61659,5.323275 -2.53718,4.103776 -6.77887,6.241621 -8.6572,4.36329 z m 4.42157,-1.584607 c 1.61904,-1.273536 3.99169,-5.885728 3.99989,-7.775392 0.008,-1.788907 -1.45189,-1.49008 -3.46685,0.709744 -2.75123,3.003637 -4.32749,8.223589 -2.48327,8.223589 0.26298,0 1.14058,-0.521072 1.95023,-1.157941 z m 7.2051,0.55632 c 0,-0.917563 0.96,-4.785072 2.13333,-8.59447 1.17334,-3.809392 2.13334,-7.172202 2.13334,-7.472911 0,-0.300704 -0.41157,-0.84768 -0.91458,-1.215494 -0.81051,-0.592661 -0.67665,-0.734453 1.17637,-1.246101 1.44398,-0.398699 2.1971,-0.405579 2.43402,-0.02224 0.18869,0.305307 -0.82068,4.312805 -2.24303,8.905552 -1.42237,4.592746 -2.58612,8.537237 -2.58612,8.76553 0,0.881382 0.9192,0.353856 1.6,-0.918245 0.71404,-1.334176 1.6,-1.78744 1.6,-0.81856 0,0.992629 -3.32079,4.285226 -4.32191,4.285226 -0.77745,0 -1.01142,-0.38593 -1.01142,-1.668287 z m 7.40947,0.799376 c -1.79285,-2.160262 0.0151,-7.712144 3.511,-10.781584 2.68328,-2.355958 5.61286,-2.216934 5.61286,0.266357 0,1.632608 -2.21984,3.737744 -4.44214,4.212603 -2.33582,0.49912 -3.02452,1.179253 -3.02452,2.986912 0,1.994938 1.30196,2.508501 3.36206,1.326165 2.25686,-1.295264 2.54782,-0.530928 0.49582,1.302533 -1.95757,1.749093 -4.38289,2.051216 -5.51508,0.687014 z m 5.87688,-8.268448 c 1.61489,-1.504496 1.22368,-3.014038 -0.59978,-2.31431 -0.66251,0.254224 -2.55324,2.932966 -2.55324,3.61736 0,0.554758 2.08282,-0.30601 3.15302,-1.30305 z M 210.8,87.113448 c -0.81325,-0.32816 -0.88186,-2.117498 -0.0997,-2.600885 0.31181,-0.192714 0.99071,0.03312 1.50866,0.501856 1.16271,1.052235 2.6615,1.103403 3.04502,0.103952 0.15793,-0.411557 -0.23447,-1.770736 -0.87199,-3.020394 -1.59234,-3.121232 -1.6036,-5.692107 -0.0305,-6.965915 0.67836,-0.549301 1.76092,-0.998731 2.40569,-0.998731 1.68349,0 3.21802,1.267195 2.81291,2.322875 -0.42088,1.0968 -1.90029,1.146181 -2.31052,0.07713 -0.37912,-0.987968 -1.73039,-1.050058 -2.09637,-0.09633 -0.14851,0.387018 0.33667,2.007018 1.07819,3.6 1.68253,3.614512 1.68955,4.480581 0.0496,6.12057 -1.25285,1.252859 -3.6994,1.678763 -5.49091,0.955877 z m 9.46438,-0.449541 c -1.06706,-1.285728 -0.37346,-5.77697 1.27742,-8.271616 2.74624,-4.14985 7.3376,-5.628058 7.69818,-2.478464 0.22975,2.006838 -1.112,3.405488 -4.10383,4.277862 -1.8372,0.535701 -2.52646,1.045904 -2.89119,2.140112 -0.2634,0.790197 -0.3438,1.7888 -0.17867,2.219125 0.39114,1.019301 2.68264,1.007893 3.53371,-0.0176 0.36517,-0.44 1.05456,-0.793504 1.53197,-0.785568 0.59335,0.0099 0.23761,0.600565 -1.12413,1.866667 -2.1647,2.012645 -4.57811,2.453637 -5.74346,1.049477 z m 6.41355,-8.818277 c 1.36858,-2.557216 -0.32462,-2.894859 -2.36385,-0.471376 -0.75941,0.902501 -1.38074,1.850021 -1.38074,2.105589 0,0.791131 3.19216,-0.601989 3.74459,-1.634213 z m 4.0056,9.114986 c -0.19115,-0.30929 0.26686,-2.576666 1.0178,-5.038613 0.75094,-2.461941 1.36534,-4.621552 1.36534,-4.79913 0,-0.791483 -1.02808,-0.217974 -1.33333,0.743792 -0.34386,1.083408 -1.33334,1.49297 -1.33334,0.551893 0,-0.848299 3.25248,-4.285227 4.05525,-4.285227 0.87262,0 0.97806,1.923723 0.22466,4.098614 -0.44063,1.272016 -0.42026,1.346224 0.13334,0.485744 2.57173,-3.99735 5.20002,-5.642219 5.93889,-3.716758 0.48472,1.263142 -0.66149,2.375472 -2.08075,2.019259 -1.51425,-0.380048 -2.91232,1.457093 -4.95567,6.511995 -1.41997,3.512762 -2.33832,4.551125 -3.03219,3.428431 z m 12.31601,-2.984879 c 1.3554,-3.734107 1.63923,-6.882822 0.67417,-7.479259 -0.54453,-0.336539 -1.21975,0.304043 -1.72535,1.636853 -0.11128,0.293334 -0.36924,0.379275 -0.57325,0.190982 -0.70788,-0.65336 1.18996,-4.190982 2.24836,-4.190982 2.62419,0 3.68504,4.793248 1.96953,8.899019 -0.44385,1.062283 -0.69766,2.040757 -0.56404,2.174384 0.36083,0.360827 3.36284,-1.891013 4.29479,-3.221563 1.14517,-1.63496 1.0047,-4.108741 -0.31296,-5.511317 -1.21036,-1.288379 -0.97929,-2.340523 0.51403,-2.340523 1.51297,0 2.20852,1.133718 2.20852,3.599819 0,3.879904 -2.48312,7.151141 -6.79619,8.953258 -3.17457,1.326422 -3.32607,1.114475 -1.93761,-2.710671 z m 10.3338,2.21344 c 0,-0.702619 0.73586,-3.006752 1.63526,-5.120294 1.70782,-4.013306 1.6807,-5.459626 -0.0599,-3.19425 -0.76863,1.000378 -1.02124,1.110336 -1.03019,0.448437 -0.0175,-1.294256 2.99959,-4.304261 4.10166,-4.092027 1.53819,0.29623 1.39211,1.732614 -0.61885,6.085088 -2.00975,4.349835 -2.04906,5.73063 -0.0935,3.283867 1.41544,-1.770965 2.20645,-1.926933 1.35243,-0.266667 -1.83149,3.560528 -5.28693,5.427056 -5.28693,2.855846 z m 7.69578,-0.03829 c -2.43285,-3.713008 3.04915,-12.539109 7.40154,-11.916576 1.27808,0.182806 1.86035,1.821355 0.9653,2.716411 -0.40544,0.40544 -0.861,0.308075 -1.57289,-0.336176 -0.55118,-0.498805 -1.36677,-0.767003 -1.81244,-0.595984 -2.158,0.828107 -3.81587,8.81136 -1.91008,9.197771 0.49529,0.100426 1.39529,-0.312166 2,-0.91687 1.29539,-1.295397 1.63279,-1.367072 1.63279,-0.346869 0,1.127013 -3.09887,3.514074 -4.56196,3.514074 -0.77238,0 -1.62207,-0.521882 -2.14226,-1.315786 z m 9.47755,0.675781 c -1.24406,-1.244058 -0.7588,-5.363829 0.94897,-8.056714 2.82161,-4.449211 7.54042,-6.151413 7.91768,-2.856123 0.23042,2.012731 -1.11407,3.406576 -4.13244,4.284139 -2.54475,0.739861 -3.77244,2.447525 -3.07196,4.27296 0.42926,1.118624 2.41121,1.106048 3.65903,-0.0232 0.53823,-0.487088 1.15696,-0.707253 1.37496,-0.489253 0.218,0.218 -0.38726,1.096528 -1.34502,1.952282 -1.83174,1.636661 -4.22145,2.045691 -5.35122,0.915925 z m 6.30459,-8.981034 c 1.36858,-2.557216 -0.32462,-2.894859 -2.36385,-0.471376 -0.75941,0.902501 -1.38074,1.850021 -1.38074,2.105589 0,0.791131 3.19216,-0.601989 3.74459,-1.634213 z m 2.35735,8.853632 c -0.97922,-0.725856 -0.98563,-0.817776 -0.11854,-1.697685 0.85985,-0.872555 0.97828,-0.874576 1.90866,-0.03259 1.18696,1.074176 2.55765,1.16568 2.92991,0.195589 0.14818,-0.386154 -0.30395,-1.886154 -1.00473,-3.333333 -0.70078,-1.447179 -1.27635,-3.182144 -1.27903,-3.855477 -0.006,-1.589232 2.26242,-3.842427 3.86895,-3.842427 1.75583,0 3.30946,1.246048 2.89623,2.322875 -0.42007,1.094704 -1.62799,1.13192 -2.50339,0.07713 -0.95116,-1.14608 -2.13333,-0.986533 -2.13333,0.287915 0,0.598352 0.48,2.028789 1.06667,3.178752 0.58666,1.149962 1.06666,2.802981 1.06666,3.673376 0,2.972469 -4.2065,4.872778 -6.69806,3.025887 z M 120,86.399998 c 0,-0.293333 0.56407,-0.533333 1.2535,-0.533333 1.15582,0 1.42591,-0.600438 3.46666,-7.706939 2.44906,-8.528368 2.57458,-9.359728 1.41318,-9.359728 -0.44,0 -0.8,-0.24 -0.8,-0.533333 0,-0.311536 1.79145,-0.533333 4.30769,-0.533333 4.05002,0 4.40094,0.09325 5.86666,1.558976 2.19102,2.191008 2.10796,4.398714 -0.25435,6.761023 -0.99734,0.997334 -2.19734,1.813334 -2.66667,1.813334 -1.11699,0 -1.08639,0.315221 0.42081,4.335072 0.94958,2.532624 1.56094,3.441674 2.4,3.568688 2.22783,0.337242 1.08137,1.218463 -1.37748,1.058794 l -2.50335,-0.162555 -1.33838,-4.133333 c -0.73847,-2.280602 -1.64172,-4.133333 -2.01509,-4.133333 -0.3722,0 -1.07599,1.38 -1.56399,3.066667 -0.488,1.686666 -1.00038,3.366666 -1.13863,3.733333 -0.13824,0.366667 0.12017,0.666667 0.57424,0.666667 0.45407,0 0.97391,0.24 1.1552,0.533333 0.20786,0.336314 -1.06113,0.533333 -3.43519,0.533333 -2.15432,0 -3.76481,-0.228149 -3.76481,-0.533333 z m 12.55758,-10.909093 c 2.17404,-2.174043 1.54435,-5.585136 -1.18003,-6.392293 -1.03375,-0.306272 -1.24811,-0.01632 -2.03019,2.746144 -0.48093,1.698719 -0.997,3.508575 -1.14682,4.021909 -0.44005,1.507664 2.74861,1.232672 4.35704,-0.37576 z m -71.897622,6.909093 c -0.828128,-2.596699 -3.13864,-27.68217 -2.664917,-28.933333 0.138827,-0.366666 -0.133264,-0.666666 -0.604645,-0.666666 -0.471387,0 -0.857062,-0.36 -0.857062,-0.8 0,-0.44 0.24,-0.8 0.533334,-0.8 0.293333,0 0.533333,0.24 0.533333,0.533333 0,0.293333 0.345835,0.533333 0.768523,0.533333 1.136192,0 1.550901,0.999816 0.793328,1.912635 -0.466763,0.562416 -0.495984,0.966565 -0.09862,1.363931 0.363461,0.363461 0.398923,1.142688 0.09952,2.186661 -0.255846,0.892085 -0.328448,1.8432 -0.161339,2.113589 0.167109,0.270389 0.36288,2.336219 0.435045,4.590731 0.169664,5.300474 0.206966,5.550976 0.774331,5.200325 0.262592,-0.162293 0.615061,0.06354 0.783259,0.501856 0.168197,0.438315 0.701306,0.796939 1.184682,0.796939 0.760704,0 0.830822,0.448661 0.52151,3.337002 -0.547947,5.116624 -1.62831,9.421435 -2.040278,8.129664 z m 1.460043,-7.618437 c 0.347776,-2.996475 0.301707,-3.184811 -0.852891,-3.486747 -0.67129,-0.175546 -1.269232,-0.268693 -1.328762,-0.206997 -0.05953,0.0617 0.15401,2.267381 0.474528,4.901514 0.627818,5.159712 0.998538,4.89743 1.707125,-1.20777 z m -28.62,0.587445 c 0.385,-0.154064 0.845,-0.13512 1.022222,0.04208 0.177222,0.177221 -0.137778,0.303275 -0.7,0.280117 -0.621303,-0.0256 -0.74768,-0.151968 -0.322222,-0.322218 z m -2.879377,-1.49776 c -0.478849,-0.730816 -1.107266,-1.182506 -1.396483,-1.003765 -0.289218,0.178747 -1.042966,0.07845 -1.674995,-0.22288 -0.63203,-0.301333 -1.574589,-0.684197 -2.094575,-0.850811 -0.519987,-0.166613 -1.077507,-0.728373 -1.238933,-1.248362 -0.161426,-0.519984 -0.498782,-1.33463 -0.749679,-1.81032 -0.277242,-0.525638 -0.225806,-1.095264 0.131132,-1.452198 0.427523,-0.427525 0.426825,-0.939536 -0.0026,-1.881941 -0.456415,-1.001723 -0.420779,-1.517829 0.157505,-2.281136 0.411058,-0.542576 0.755011,-1.318981 0.76434,-1.725344 0.0093,-0.406363 0.649586,-1.325136 1.422792,-2.041722 l 1.40583,-1.30288 -1.658183,-1.0084 c -1.950875,-1.186395 -2.637934,-3.264299 -1.674549,-5.064399 0.461794,-0.86287 0.510503,-1.49509 0.150923,-1.958908 -1.136747,-1.466281 -1.194309,-2.587056 -0.18472,-3.596645 0.861609,-0.861609 0.929339,-1.263609 0.433996,-2.575923 -0.766849,-2.031613 -0.203368,-3.521478 1.193682,-3.15614 1.561258,0.408277 3.615536,-0.748269 4.31548,-2.42959 0.856871,-2.058272 3.017101,-2.534273 4.301694,-0.947867 0.896211,1.106779 0.97668,1.122192 0.97668,0.187069 0,-0.560497 0.260912,-1.279997 0.579803,-1.598889 0.417517,-0.417516 0.417517,-0.680103 0,-0.938142 -1.002357,-0.619491 -0.673058,-3.42811 0.486863,-4.152493 0.586667,-0.366379 1.066667,-1.086379 1.066667,-1.6 0,-0.51362 0.48,-1.23362 1.066667,-1.6 1.25887,-0.786177 1.398085,-2.670567 0.266666,-3.609561 -0.44,-0.365167 -0.8,-1.328876 -0.8,-2.141576 0,-0.821459 0.355258,-1.613961 0.8,-1.784624 0.564904,-0.216774 0.8,-1.098099 0.8,-2.999023 0,-2.542253 0.102019,-2.740683 1.833595,-3.566414 1.699879,-0.810616 1.93121,-0.810419 3.172187,0.0027 0.818276,0.536155 1.465295,0.672076 1.664549,0.349676 0.615384,-0.995712 2.943373,-0.583279 3.380702,0.598935 0.229163,0.619487 1.179598,1.447131 2.112077,1.839209 1.524932,0.641186 1.748331,0.614001 2.221616,-0.270337 0.378709,-0.707632 0.319776,-1.154518 -0.210272,-1.594419 -0.982219,-0.815169 -1.577171,-3.312555 -0.890283,-3.737075 0.300314,-0.185605 0.672555,-1.6085768 0.827206,-3.1621597 0.331786,-3.33312 0.620677,-3.9220986 1.805018,-3.6799767 0.50856,0.1039686 1.25671,-0.416998 1.762635,-1.2273994 1.601653,-2.56554776 4.584443,-2.29490845 6.206608,0.5631476 0.52016,0.916461 1.218437,1.4965008 1.619664,1.345415 1.044736,-0.3934214 2.761366,0.6983489 2.761366,1.756198 0,0.5067888 0.54,1.1583445 1.2,1.4479024 0.854618,0.3749419 1.20416,0.9869754 1.214453,2.1264682 0.0079,0.8799996 0.446411,2.4812796 0.974357,3.5583996 0.67696,1.381121 0.811851,2.245782 0.457622,2.933334 -0.276262,0.536213 -0.394726,1.274933 -0.263254,1.6416 0.339526,0.946899 3.317382,0.839316 3.690619,-0.133334 0.512656,-1.335955 2.817435,-0.980175 3.388997,0.523147 0.33655,0.885187 0.775755,1.218502 1.326923,1.006999 1.060928,-0.407115 2.410283,0.713573 2.410283,2.001825 0,0.79002 0.396384,1.001362 1.878101,1.001362 1.48575,0 2.005014,0.278545 2.485606,1.333334 0.334133,0.733333 0.903306,1.333333 1.264842,1.333333 0.835899,0 1.367184,1.350149 0.954486,2.425623 -0.359654,0.937247 1.188048,2.331447 2.616965,2.357415 0.513333,0.0093 1.356091,0.439718 1.872789,0.95642 0.516704,0.516701 1.368235,0.856883 1.892288,0.755959 1.220086,-0.234966 2.50159,0.824054 2.50159,2.06728 0,0.530982 0.48,1.117769 1.066666,1.303969 0.672726,0.213516 1.066667,0.806952 1.066667,1.606839 0,0.858152 0.474285,1.494903 1.466665,1.969055 1.89927,0.907458 2.1727,2.722551 0.57834,3.839276 -0.66862,0.468323 -1.64227,0.851497 -2.163677,0.851497 -0.689979,0 -0.947995,0.419937 -0.947995,1.542939 0,1.561161 -1.171152,2.518387 -2.258789,1.846191 -0.360411,-0.222745 -0.468848,0.142403 -0.301803,1.016246 0.191984,1.004309 0.06757,1.289786 -0.471904,1.082773 -0.440288,-0.168955 -0.605536,-0.681563 -0.414122,-1.284643 0.383674,-1.20886 -0.688171,-1.340847 -2.158406,-0.265784 -1.468992,1.074155 -2.946768,0.0086 -2.86521,-2.066014 l 0.0631,-1.605041 0.342138,1.6 c 0.42888,2.005665 2.369056,2.276803 2.639499,0.368867 0.141477,-0.998103 0.318139,-1.111929 0.933333,-0.601363 0.586448,0.486708 0.758827,0.480358 0.758827,-0.02795 0,-0.361747 0.441131,-0.112948 0.980293,0.552888 1.331942,1.644877 2.416214,0.922258 1.993904,-1.328847 -0.304432,-1.62278 -0.24296,-1.704501 1.152107,-1.53151 2.022115,0.250746 3.782905,-1.142235 3.008135,-2.379763 -0.31645,-0.505443 -1.18507,-0.992413 -1.93029,-1.082154 -1.153386,-0.138896 -1.343722,-0.416571 -1.279541,-1.866667 0.06394,-1.444631 -0.106965,-1.697064 -1.124608,-1.661152 -1.01264,0.03573 -1.2,-0.234895 -1.2,-1.733333 0,-1.354359 -0.227781,-1.775681 -0.96,-1.775681 -0.528,0 -1.248,0.288 -1.6,0.64 -0.497776,0.497778 -0.64,0.453031 -0.64,-0.201362 0,-1.444332 -1.521883,-2.344007 -2.709973,-1.602031 -0.838144,0.523428 -1.02336,0.494306 -1.02336,-0.160901 0,-0.44 -0.457462,-1.08569 -1.016582,-1.434866 -0.79936,-0.499209 -0.914597,-0.903107 -0.539301,-1.890214 0.502117,-1.320664 -0.462357,-2.214327 -1.618576,-1.499744 -0.334672,0.206838 -0.558875,-0.208833 -0.558875,-1.036145 0,-1.565632 -1.299728,-2.322626 -2.603984,-1.516625 -1.328795,0.821167 -2.196016,0.23833 -2.196016,-1.475889 0,-1.2 -0.243808,-1.555556 -1.066667,-1.555556 -0.586666,0 -1.066666,0.24 -1.066666,0.533333 0,0.293334 -0.224795,0.533334 -0.499542,0.533334 -0.274746,0 -0.574746,-0.778035 -0.666666,-1.728966 -0.221104,-2.287372 -2.033792,-2.825239 -2.033792,-0.603474 0,1.150416 -0.142224,1.336884 -0.64,0.839107 -0.928123,-0.928123 -2.599238,-0.78469 -3.417574,0.293333 -0.646608,0.851797 -0.709984,0.81091 -0.725466,-0.468029 -0.02581,-2.134406 -1.296208,-2.931479 -2.947622,-1.849431 -0.734805,0.481461 -1.336005,0.67785 -1.336005,0.436421 0,-0.897156 1.325883,-1.718961 2.773333,-1.718961 0.971851,0 1.493334,-0.279365 1.493334,-0.8 0,-0.44 -0.265675,-0.8 -0.590395,-0.8 -0.326171,0 -0.441365,-0.388359 -0.257403,-0.867763 0.197776,-0.515388 -0.0416,-1.141668 -0.589472,-1.542287 -0.77704,-0.568185 -0.811136,-0.80867 -0.216266,-1.525445 0.97641,-1.1765028 0.321562,-2.6590019 -1.019611,-2.3082772 -0.870539,0.2276502 -1.060187,0.011644 -1.060187,-1.207521 0,-0.8166213 -0.387509,-1.8063685 -0.86113,-2.1994386 C 65.60062,4.6699077 65.334263,4.7451237 64.472204,5.8097156 L 63.466668,7.0515028 V 5.7310095 C 63.466668,3.9356868 61.531452,1.6 60.043953,1.6 58.217665,1.6 56.940534,3.2937082 57.376678,5.137283 L 57.738497,6.6666665 56.57079,5.4548404 c -1.497061,-1.5536221 -2.368069,-1.0105045 -2.001557,1.2480693 0.179536,1.1063429 0.05195,1.853905 -0.341216,1.9988629 -0.472688,0.174289 -0.463131,0.4063397 0.03867,0.9382272 1.029034,1.0907752 0.809706,2.0308782 -0.4,1.7145332 -1.721289,-0.450128 -1.26024,0.897278 1.03073,3.012293 2.091014,1.930411 2.093046,1.936253 0.666667,1.918074 -1.194827,-0.01523 -1.407723,0.191243 -1.291205,1.25221 0.111424,1.014549 -0.0059,1.149763 -0.582406,0.671294 -0.39706,-0.329532 -0.897848,-0.423232 -1.112859,-0.20822 -0.215012,0.215011 -0.630742,-0.03759 -0.923846,-0.561338 -0.341565,-0.610343 -0.888152,-0.839518 -1.522261,-0.63826 -0.780731,0.247794 -1.025417,6.4e-4 -1.160416,-1.172063 -0.213679,-1.856193 -1.862799,-2.327679 -2.463336,-0.704272 l -0.420521,1.136775 -0.992934,-1.09718 c -1.229563,-1.358652 -3.044802,-1.411171 -4.21162,-0.121851 -1.116359,1.233562 -1.116359,2.149113 0,3.382676 0.82218,0.908517 0.820579,0.975329 -0.0234,0.975329 -0.567039,0 -0.847405,0.349212 -0.749327,0.933333 0.106717,0.635568 -0.141052,0.883336 -0.77662,0.77662 C 38.718551,20.806727 38.4,21.097067 38.4,21.760627 c 0,1.772261 4.123206,4.302833 5.221439,3.2046 0.720701,-0.720701 1.722176,-0.08297 1.674409,1.066248 -0.03062,0.736604 -0.122649,0.706404 -0.502254,-0.164809 -0.451565,-1.036365 -0.474994,-1.032577 -0.824718,0.133333 -0.415103,1.383872 -1.052129,1.554305 -1.495077,0.4 -0.484968,-1.263805 -1.886967,-0.932185 -2.254789,0.533334 -0.212107,0.845099 -0.710932,1.333333 -1.362259,1.333333 -0.851627,0 -0.932816,0.177132 -0.474073,1.0343 0.368105,0.687811 0.374391,1.145019 0.01876,1.364809 -0.294125,0.18178 -0.534774,0.159148 -0.534774,-0.05029 0,-0.209441 -0.48,0.05359 -1.066666,0.584518 -1.44011,1.303281 -1.342022,2.63932 0.287897,3.921415 l 1.354564,1.0655 -1.221231,0.173209 c -1.851634,0.262621 -1.569585,1.798 0.305776,1.664541 1.502162,-0.106901 1.51106,-0.09105 0.546973,0.974254 -0.546466,0.603838 -1.064715,0.828873 -1.17145,0.508669 -0.262635,-0.787905 -1.552989,-0.724566 -1.882646,0.09241 -0.174342,0.432064 -0.283823,0.367311 -0.311112,-0.184006 -0.02316,-0.467871 -0.487396,-1.253657 -1.031642,-1.746193 -1.262028,-1.14212 -2.935956,-0.595553 -2.561498,0.836373 0.156004,0.596559 -0.04789,1.147052 -0.4873,1.315669 -0.415546,0.15946 -0.622753,0.504779 -0.460459,0.767376 0.162293,0.262596 -0.319085,0.477448 -1.06973,0.477448 -0.750645,0 -1.364809,0.198433 -1.364809,0.440963 0,0.24253 -0.72,0.33529 -1.6,0.206134 -1.814275,-0.266279 -2.025773,0.408638 -0.8,2.552903 0.985317,1.723632 0.982103,2.133333 -0.01674,2.133333 -0.449205,0 -0.961096,0.37619 -1.137533,0.835979 -0.403192,1.050708 0.830076,3.430687 1.777731,3.430687 1.199164,0 0.78539,0.981755 -0.490123,1.162907 -1.880813,0.267117 -1.901929,2.683963 -0.03627,4.151488 1.157263,0.910304 2.044448,1.132187 3.9793,0.995211 1.369498,-0.09695 2.378402,0.0037 2.242008,0.223728 -0.136393,0.22 -0.780422,0.4 -1.431175,0.4 -1.601853,0 -3.575938,1.455226 -3.222727,2.37568 0.211184,0.550335 -0.02555,0.664901 -0.900927,0.435983 -1.062518,-0.277856 -1.150007,-0.161594 -0.831967,1.105584 0.258964,1.031792 0.151042,1.416086 -0.397685,1.416086 -1.261846,0 -1.441303,1.559253 -0.309695,2.690858 0.905571,0.905574 0.944018,1.113734 0.25457,1.378299 C 23.923819,67.343355 23.684354,68.8 24.516596,68.8 c 0.284128,0 0.385513,0.341595 0.225302,0.759099 -0.317263,0.826773 1.542724,2.111835 2.161314,1.493248 0.207236,-0.207237 0.61882,0.05568 0.914632,0.584272 0.507372,0.906624 0.615323,0.910299 1.905611,0.06487 1.333924,-0.874021 1.360198,-0.867237 1.061739,0.27407 -0.198613,0.759498 0.05448,1.530783 0.721054,2.197354 0.564898,0.564901 0.79262,1.027088 0.506049,1.027088 -0.286572,0 -0.912824,-0.597941 -1.391672,-1.328752 z m 32.60166,-8.271248 c 0.116432,-2.786666 0.24641,-5.066666 0.288848,-5.066666 0.04245,0 0.155413,-0.66 0.251061,-1.466667 0.1732,-1.460762 -0.453595,-1.971994 -1.111877,-0.906874 -0.21424,0.346645 -0.703755,0.147258 -1.285622,-0.523632 -0.516805,-0.595883 -1.055285,-0.967792 -1.196613,-0.826459 -0.141333,0.141328 -0.256971,-0.09271 -0.256971,-0.520085 0,-1.23152 1.332214,-1.413414 1.706848,-0.23304 0.38176,1.202816 1.656912,1.066565 1.44616,-0.154528 -0.08817,-0.51087 0.286336,-0.772326 1.066667,-0.744667 1.011525,0.03584 1.191547,-0.219024 1.133285,-1.604507 -0.06044,-1.437382 0.08434,-1.617766 1.136961,-1.416544 0.876533,0.167559 1.134032,0.506663 0.94209,1.240646 -0.329984,1.261866 1.16143,1.932165 2.26367,1.017386 0.436266,-0.362069 0.79321,-1.455308 0.79321,-2.429424 0,-1.19688 0.364587,-2.026487 1.124486,-2.55874 0.654853,-0.458678 0.961125,-1.051943 0.733333,-1.420516 -0.293381,-0.474704 -0.505755,-0.45203 -0.849653,0.09071 -0.318502,0.502665 -0.460992,0.260537 -0.466667,-0.792991 -0.0057,-1.049509 -0.327595,-1.600129 -1.045323,-1.787819 -0.867765,-0.226926 -0.93528,-0.434362 -0.413354,-1.270091 0.479893,-0.768433 0.473088,-1.149585 -0.02949,-1.652181 -0.359338,-0.359321 -0.653328,-1.354698 -0.653328,-2.211948 0,-1.324985 -0.119925,-1.459107 -0.8,-0.894696 -0.677461,0.562244 -0.8,0.443721 -0.8,-0.773802 0,-1.084497 -0.229317,-1.392099 -0.933333,-1.251966 -0.660165,0.131405 -0.931685,0.691545 -0.927696,1.913832 0.0043,1.22819 -0.201456,1.648586 -0.710288,1.453328 -0.393755,-0.151099 -1.041206,-0.274726 -1.438774,-0.274726 -0.528256,0 -0.641301,-0.502511 -0.41993,-1.866666 0.280416,-1.72798 0.201013,-1.866667 -1.06872,-1.866667 -0.7544,0 -1.520368,-0.240649 -1.70215,-0.534775 -0.219445,-0.355071 -0.681776,-0.346783 -1.375834,0.02466 -1.749814,0.936471 -3.573782,-0.622627 -3.256603,-2.783692 0.256075,-1.744772 -1.093744,-2.137423 -1.969333,-0.572863 -0.463972,0.829052 -0.584205,0.7706 -1.076096,-0.523146 -0.572091,-1.504686 -1.833844,-1.568807 -2.389259,-0.121418 -0.241883,0.630337 -0.494205,0.63048 -1.707595,9.6e-4 -0.783075,-0.406264 -1.793283,-0.596869 -2.244905,-0.423565 -0.567507,0.217773 -0.692235,0.106538 -0.403816,-0.360132 0.241293,-0.390422 1.065547,-0.580091 1.954157,-0.449671 1.540639,0.226118 2.120994,-0.331767 0.870175,-0.836484 -0.533333,-0.215204 -0.533333,-0.277427 0,-0.311111 0.366667,-0.02316 0.666667,-0.419248 0.666667,-0.880201 0,-0.460952 0.344624,-1.182719 0.765832,-1.603926 0.502168,-0.502169 0.66617,-1.37997 0.476357,-2.549648 -0.318819,-1.964654 0.450447,-2.62985 2.439703,-2.109648 1.706636,0.446303 1.331265,1.081206 -0.481892,0.81509 -1.812255,-0.265982 -2.117068,0.59874 -0.816962,2.317633 0.905867,1.197663 1.05966,2.048217 0.283628,1.568603 -0.293333,-0.18129 -0.533333,0.04455 -0.533333,0.501858 0,0.457311 -0.38,0.831475 -0.844444,0.831475 -0.464445,0 -0.737989,0.3 -0.607877,0.666667 0.130113,0.366667 0.726541,0.613673 1.325396,0.548902 0.598855,-0.06477 1.369946,0.220965 1.713536,0.634965 0.343591,0.414001 1.001869,0.608 1.46284,0.431108 1.080186,-0.414507 2.283882,1.217503 2.283882,3.096567 0,1.825245 1.331595,2.38531 2.31912,0.975416 0.632896,-0.903582 0.797083,-0.941266 1.064523,-0.244328 0.494784,1.289377 1.893648,0.966354 2.267611,-0.523631 0.268282,-1.068921 0.489605,-1.222048 1.070037,-0.740333 0.402485,0.334034 1.102533,0.465068 1.555659,0.291188 0.551168,-0.211503 0.990373,0.121812 1.326923,1.006999 0.276682,0.727731 0.735392,1.323147 1.019354,1.323147 0.7668,0 2.176774,-2.215642 2.176774,-3.420606 0,-1.011465 0.02635,-1.013902 0.719093,-0.06652 0.926901,1.267613 2.125317,0.566446 1.814133,-1.06141 -0.203253,-1.063258 -0.108234,-1.145028 0.72552,-0.62434 1.245446,0.777791 1.779392,0.214379 1.063872,-1.122579 -0.468384,-0.875184 -0.373712,-1.103183 0.559392,-1.347195 0.839782,-0.219607 1.021766,-0.537258 0.721232,-1.258871 -0.221082,-0.530832 -0.454266,-1.635162 -0.518186,-2.454065 -0.145872,-1.868812 0.720085,-1.106577 1.095621,0.964391 0.376587,2.076743 0.442885,2.140699 2.371451,2.287651 2.783632,0.212105 3.85417,1.043718 3.597226,2.794383 -0.188917,1.287182 -0.04992,1.511878 0.878038,1.419231 0.779269,-0.0778 1.15296,0.241735 1.274645,1.089926 0.09468,0.66 0.395456,1.2 0.66839,1.2 0.272933,0 0.49624,0.18 0.49624,0.4 0,0.22 -0.6,0.4 -1.333334,0.4 -1.546576,0 -1.529429,0.03286 -0.686853,-1.316315 0.825888,-1.322461 0.288949,-1.869742 -1.10336,-1.124603 -0.999179,0.534746 -1.094064,0.406005 -1.245675,-1.690123 -0.136565,-1.888074 -0.365952,-2.297621 -1.366496,-2.439699 -0.728848,-0.103497 -1.331307,0.165231 -1.529744,0.682342 -0.292645,0.762619 -0.404427,0.752446 -1.054144,-0.09593 -0.634341,-0.828293 -0.79488,-0.847247 -1.262091,-0.149008 -0.294416,0.44 -0.538981,1.22 -0.543472,1.733333 -0.0043,0.513333 -0.249754,0.933333 -0.545024,0.933333 -0.295274,0 -1.042816,0.581899 -1.661205,1.293109 -0.618389,0.71121 -1.4568,1.165532 -1.863141,1.009606 -0.665355,-0.255321 -0.995174,0.415236 -0.788736,1.603594 0.04197,0.241804 -0.142384,0.304446 -0.40975,0.139206 -0.26736,-0.16524 -0.80425,0.08289 -1.193082,0.551404 -0.597872,0.720391 -0.55392,0.963749 0.28481,1.577044 0.545478,0.398861 1.214134,0.587776 1.48591,0.41981 0.27177,-0.167966 0.190853,0.180234 -0.179819,0.773777 -1.215397,1.946163 1.5032,3.777788 3.155205,2.125783 0.497776,-0.497777 0.64,-0.387949 0.64,0.494227 0,0.631745 0.413483,1.242282 0.933334,1.378133 0.86256,0.225411 0.860176,0.248597 -0.03147,0.305773 -1.513883,0.09708 -0.475157,1.128534 1.136475,1.128534 0.98392,0 1.609312,-0.381236 1.968522,-1.2 0.314822,-0.717579 1.062491,-1.247976 1.859803,-1.319338 0.7608,-0.06809 0.989813,0.0235 0.533333,0.213303 -1.094762,0.455205 -1.582154,1.283744 -1.591834,2.706035 -0.0091,1.332505 -0.53343,1.528071 -1.501499,0.56 -0.431328,-0.431328 -0.64,-0.449161 -0.64,-0.0547 0,0.321919 -0.78,0.549919 -1.733333,0.506667 -1.422086,-0.06452 -1.722336,0.112897 -1.672096,0.988028 0.03365,0.586666 0.255344,1.528333 0.492592,2.092591 0.337221,0.802047 0.250752,0.956622 -0.396251,0.708344 -0.455179,-0.174669 -1.096843,-0.04834 -1.42592,0.280742 -1.094064,1.094059 -0.654224,2.978397 0.976661,4.184157 1.278608,0.945318 1.475003,1.351259 1.043664,2.157216 -0.398624,0.744838 -0.33216,1.0692 0.266144,1.29879 0.438603,0.168309 1.083952,0.128949 1.434118,-0.08746 0.457957,-0.283034 0.541424,-0.01403 0.29736,0.958379 -0.678742,2.704325 3.000602,3.50992 4.29585,0.940576 0.465451,-0.923301 0.674571,-1.055989 0.680016,-0.431477 0.01328,1.525807 1.035494,1.634005 1.698096,0.179749 0.469163,-1.029696 0.751024,-1.206011 1.11384,-0.696741 0.311691,0.437509 0.376971,0.05125 0.182192,-1.078043 -0.188197,-1.09112 -0.103925,-1.63648 0.221766,-1.435189 0.288917,0.17856 0.525301,0.79049 0.525301,1.359845 0,0.569355 0.214326,1.035189 0.476272,1.035189 0.832384,0 1.141627,-1.636677 0.526438,-2.78617 -0.500528,-0.935254 -0.45847,-1.057099 0.268581,-0.778107 1.245861,0.478085 2.462043,-0.132325 2.462043,-1.235723 0,-0.523898 -0.394352,-1.103872 -0.876336,-1.288826 -0.481984,-0.184955 -0.727782,-0.484832 -0.546219,-0.666394 0.58296,-0.582964 1.955888,0.978854 1.955888,2.224986 0,0.75729 -0.396773,1.309584 -1.066667,1.484768 -0.703818,0.184053 -1.066666,0.727472 -1.066666,1.597498 0,0.988235 -0.43423,1.494198 -1.733334,2.019654 -0.953333,0.3856 -1.886965,0.926218 -2.074741,1.201375 -0.187776,0.275158 -0.787776,0.545142 -1.333334,0.599963 -0.545557,0.05482 -1.68432,0.389696 -2.530581,0.744165 -1.268944,0.53151 -1.759755,0.499611 -2.8,-0.181978 -0.693739,-0.45456 -1.261344,-1.274918 -1.261344,-1.823019 0,-0.620522 -0.507547,-1.123941 -1.345083,-1.334149 -1.105029,-0.277344 -1.252256,-0.51104 -0.82496,-1.309445 0.854086,-1.595883 -1.932858,-3.228006 -2.884026,-1.688976 -0.201995,0.326826 -0.825488,0.319637 -1.718326,-0.01984 -0.948688,-0.360694 -1.579962,-0.354112 -1.954453,0.02037 -0.376619,0.376645 -0.377941,0.553179 -0.0041,0.553179 0.301958,0 0.529958,0.54 0.506667,1.2 -0.03381,0.958528 0.243275,1.196506 1.377056,1.182645 l 1.419403,-0.01733 -1.326512,1.229365 c -1.503419,1.393328 -1.3932,2.59601 0.221952,2.421888 0.689925,-0.07438 1.183056,0.26456 1.357946,0.933333 0.356176,1.362021 1.46207,1.351968 1.819942,-0.01653 0.305904,-1.169771 0.961253,-1.385408 1.510336,-0.496976 0.193653,0.313333 0.687813,0.440864 1.098144,0.283408 0.53593,-0.205659 0.746053,0.159626 0.746053,1.29697 0,1.872022 0.691349,2.032752 1.818944,0.422886 l 0.812763,-1.160379 0.497392,1.293712 c 0.43928,1.142555 0.542165,1.182827 0.88056,0.344704 0.3608,-0.893632 0.422218,-0.895595 1.052501,-0.03365 0.618048,0.845237 0.697744,0.825877 1.040048,-0.25263 0.336603,-1.060533 0.447627,-1.091088 1.206635,-0.33208 0.590938,0.590944 1.002266,0.669574 1.403536,0.268304 0.892048,-0.892048 1.630571,-0.662821 0.859168,0.266667 -0.43135,0.519739 -1.147419,0.72008 -1.899286,0.531376 -0.663792,-0.166603 -1.360917,-0.05369 -1.549173,0.250912 -0.205973,0.333275 -1.706747,0.456128 -3.768592,0.308491 -2.904107,-0.207942 -3.504341,-0.09953 -3.938304,0.711344 -0.2816,0.52617 -0.360443,1.108229 -0.175205,1.293466 0.185237,0.185232 -0.06874,0.33679 -0.564395,0.33679 -0.838672,0 -0.840587,-0.09248 -0.02752,-1.333334 0.480496,-0.733333 0.666032,-1.337008 0.412293,-1.341498 -0.253765,-0.0045 -0.101365,-0.240827 0.338635,-0.525179 0.44,-0.284352 0.56,-0.515851 0.266667,-0.514448 -0.293334,0.0016 -1.601115,1.077728 -2.906187,2.391829 -1.374021,1.383542 -2.865541,2.389286 -3.543307,2.389286 -1.101968,0 -1.140421,-0.13263 -0.657157,-2.266667 0.282315,-1.246667 0.363899,-3.346667 0.181301,-4.666667 -0.360224,-2.604074 -1.336155,-6.049605 -1.630229,-5.755535 -0.100432,0.100432 -0.34575,2.336512 -0.545158,4.969071 -0.551722,7.28383 -1.265802,10.10144 -1.010314,3.986464 z m 6.111051,1.866667 c 0.688933,-0.733333 1.030768,-1.337008 0.759632,-1.341499 -0.271131,-0.0043 -0.160544,-0.218698 0.245754,-0.47601 0.590208,-0.373787 0.509798,-0.590352 -0.4,-1.077264 -0.626298,-0.335184 -1.13872,-0.45159 -1.13872,-0.258688 0,0.192906 -0.3,0.10176 -0.666666,-0.20255 -0.49727,-0.412693 -0.677718,-0.259893 -0.71015,0.601366 -0.02389,0.635056 -0.229936,1.814645 -0.457818,2.621312 -0.541318,1.91616 0.631072,1.98217 2.367968,0.133333 z m 3.568058,-22.437506 c 0.09243,-0.277295 -0.31257,-0.804329 -0.9,-1.171186 -0.92336,-0.576647 -1.068058,-0.533932 -1.068058,0.315284 0,1.610418 1.499216,2.262422 1.968058,0.855902 z m -7.985067,-8.536957 c 0.06398,-0.857378 -0.02507,-1.231713 -0.197893,-0.831855 -0.265285,0.613798 -0.385952,0.613798 -0.774827,0 -0.336058,-0.530428 -0.462816,-0.39402 -0.468773,0.504461 -0.0048,0.686703 0.227765,1.085661 0.525168,0.901858 0.293333,-0.18129 0.533333,-0.09545 0.533333,0.190746 0,0.286201 -0.246,0.642365 -0.546666,0.791476 -0.300667,0.149111 -0.240667,0.210603 0.133333,0.136648 0.374,-0.07395 0.732347,-0.835955 0.796325,-1.693334 z m 95.710844,32.483402 c 0.12551,-1.095771 0.4649,-1.508939 1.2395,-1.508939 1.64142,0 1.48284,2.607707 -0.17284,2.842272 -1.07782,0.152699 -1.21696,-0.02123 -1.06666,-1.333333 z m 97.6,0 c 0.12551,-1.095771 0.4649,-1.508939 1.2395,-1.508939 1.64142,0 1.48284,2.607707 -0.17284,2.842272 -1.07782,0.152699 -1.21696,-0.02123 -1.06666,-1.333333 z M 72.267665,69.331721 c 0.180742,-0.292448 0.700134,-0.531723 1.154208,-0.531723 0.514736,0 0.709995,-0.301216 0.518592,-0.8 -0.457797,-1.193002 0.365888,-0.966096 1.170619,0.322475 0.385547,0.617365 0.463419,0.975648 0.173045,0.796187 -0.290373,-0.179462 -1.161808,-0.0853 -1.936517,0.209242 -0.930805,0.353894 -1.297104,0.355184 -1.079947,0.0037 z M 26.175439,68.488889 c 0.02559,-0.621307 0.151968,-0.74768 0.322222,-0.322224 0.154065,0.384997 0.135117,0.844997 -0.04211,1.022224 -0.177223,0.177221 -0.303276,-0.137781 -0.280118,-0.7 z m 73.600003,-3.555557 c -0.02315,-0.513334 -0.499248,-1.390475 -1.057979,-1.949206 -0.558731,-0.55873 -0.978731,-1.45873 -0.933333,-2 0.06054,-0.721877 -0.237238,-0.950272 -1.117462,-0.857082 -0.763797,0.08086 -1.2,-0.161472 -1.2,-0.666667 0,-0.968688 -0.613141,-1.018432 -1.565888,-0.127045 -0.585296,0.5476 -0.656864,0.436944 -0.400714,-0.619557 0.613077,-2.528731 -1.597776,-4.261894 -3.291664,-2.580443 -0.538486,0.534533 -0.601168,0.48168 -0.316272,-0.266667 0.69576,-1.827546 4.507872,-0.438981 4.507872,1.641995 0,0.343568 0.56,0.624672 1.244442,0.624672 1.027163,0 1.244448,-0.279365 1.244448,-1.6 0,-0.989045 -0.275413,-1.6 -0.721274,-1.6 -0.496592,0 -0.620411,-0.401867 -0.397483,-1.290085 0.256208,-1.020807 0.09587,-1.326943 -0.768165,-1.466667 -1.063094,-0.171913 -1.058747,-0.205936 0.164373,-1.286942 l 1.256336,-1.110362 -0.04965,1.752342 c -0.02731,0.963788 0.348485,2.192301 0.835125,2.730029 0.883227,0.975952 0.777568,2.910586 -0.229733,4.206544 -0.306128,0.393856 -0.08153,0.702469 0.650565,0.893914 0.708581,0.185296 1.061573,0.648683 0.963749,1.265141 -0.0849,0.535014 0.279574,1.625062 0.809942,2.422331 0.530362,0.797264 0.840683,1.757264 0.689593,2.133333 -0.172287,0.428832 -0.290399,0.335787 -0.316804,-0.249578 z M 41.661868,64.350068 c -0.03403,-0.540795 -0.505074,-1.099163 -1.046772,-1.240822 -0.713796,-0.186661 -0.916893,-0.613338 -0.737825,-1.550069 0.27097,-1.417493 -0.779085,-1.777365 -1.903937,-0.652512 -0.476298,0.476299 -0.64,0.481099 -0.64,0.01877 0,-0.34168 0.449792,-0.861957 0.999538,-1.15617 0.76685,-0.410405 1.213563,-0.298437 1.918913,0.48096 0.505656,0.558746 0.770816,1.256272 0.589245,1.550064 -0.181572,0.293786 0.05957,0.75225 0.535882,1.018805 0.509251,0.284992 0.759071,0.902699 0.606418,1.499445 -0.243678,0.952582 -0.263388,0.954512 -0.321462,0.03152 z M 184.80119,52.493117 c -2.39283,-1.247656 -3.45088,-2.365624 -4.85006,-5.12473 -3.58882,-7.076975 -1.29176,-16.752973 4.91095,-20.686617 2.96156,-1.878164 6.24923,-2.465499 9.83368,-1.756764 l 2.63758,0.521513 v -5.488738 -5.488738 l -1.86667,-0.674995 c -3.0447,-1.100978 -2.46946,-2.365005 1.65618,-3.639286 6.15946,-1.902463 5.54382,-3.9620379 5.54382,18.546458 v 19.634552 l 1.86667,0.890152 c 2.54988,1.215955 2.352,2.241769 -0.62834,3.257274 -2.67057,0.909953 -5.505,1.125553 -5.505,0.418737 0,-0.237269 -0.30814,-0.852809 -0.68476,-1.367867 -0.64423,-0.881046 -0.82573,-0.855894 -3.06667,0.424973 -2.81681,1.610024 -7.31588,1.854035 -9.84738,0.534076 z m 11.3447,-4.428476 c 1.15357,-0.617374 1.18745,-0.884921 1.18745,-9.378031 v -8.742525 l -1.38744,-1.091359 c -3.28889,-2.587045 -7.63744,-1.704852 -10.12497,2.054061 -1.89908,2.869705 -2.42671,8.953118 -1.08193,12.474369 2.02342,5.29826 6.68324,7.211505 11.40689,4.683485 z M 216.8,52.449784 c -6.30839,-3.315218 -9.04597,-11.549788 -6.42793,-19.334979 1.64507,-4.89187 6.3962,-8.589322 11.02314,-8.578498 4.47749,0.01047 9.44452,3.688113 10.55598,7.815746 1.05081,3.902424 1.02422,3.914613 -8.54158,3.914613 h -8.47627 v 2.553658 c 0,5.348428 3.76585,9.713008 8.38059,9.713008 2.71194,0 4.02699,-0.571594 6.33509,-2.753567 1.4594,-1.379644 1.72792,-1.46385 2.33507,-0.73227 0.98162,1.182771 -1.43873,4.678918 -4.64827,6.714347 -2.0569,1.304451 -3.02666,1.567862 -5.7069,1.550136 -1.86803,-0.01235 -3.90327,-0.375742 -4.82892,-0.862194 z m 8.8,-20.815411 c 0,-5.27302 -6.78331,-6.16557 -9.33637,-1.228484 -1.55574,3.008453 -1.30756,3.19411 4.26971,3.19411 H 225.6 Z M 120.09624,51.600601 c 0.13145,-0.925084 0.66835,-1.304029 2.34754,-1.656884 l 2.1771,-0.457487 6.6229,-19.426212 6.62289,-19.426211 2.10312,0.149763 2.10312,0.149763 6.91792,19.276058 6.91791,19.276057 2.17897,0.457878 c 1.68096,0.353232 2.21791,0.731994 2.34939,1.657275 0.17027,1.198329 0.16323,1.199398 -7.90376,1.199398 -8.03885,0 -8.07344,-0.0052 -7.90376,-1.185157 0.13336,-0.92738 0.67253,-1.284012 2.47893,-1.63966 1.39623,-0.274894 2.22169,-0.702285 2.08882,-1.081511 -0.12084,-0.344853 -1.03304,-2.847005 -2.02712,-5.560339 l -1.80743,-4.933333 h -6.76748 -6.76747 l -1.871,5.587324 -1.87098,5.587324 2.62374,0.348053 c 2.30723,0.306065 2.62375,0.500607 2.62375,1.612675 0,1.263536 -0.006,1.264624 -6.70376,1.264624 -6.64602,0 -6.7023,-0.01033 -6.53334,-1.199398 z m 23.76547,-17.600602 c -0.13883,-0.366667 -1.27967,-3.614945 -2.5352,-7.218398 -1.25553,-3.603452 -2.53468,-6.467767 -2.84254,-6.365144 -0.53379,0.177926 -5.06397,12.190629 -5.12258,13.583542 -0.0207,0.49121 1.39062,0.666667 5.36234,0.666667 4.09138,0 5.32956,-0.160658 5.13798,-0.666667 z m 18.80496,17.72 c 0,-0.773334 0.45432,-1.170864 1.6,-1.4 l 1.6,-0.32 V 32.298779 14.59756 L 164,13.707408 c -1.02666,-0.489583 -1.86666,-1.206794 -1.86666,-1.593802 0,-0.7369 6.39715,-3.0469396 8.43784,-3.0469396 h 1.16216 V 29.533333 49.999999 l 1.6,0.32 c 1.14568,0.229136 1.6,0.626666 1.6,1.4 0,1.021835 -0.33032,1.08 -6.13334,1.08 -5.80302,0 -6.13333,-0.05817 -6.13333,-1.08 z m 73.06667,0 c 0,-0.773334 0.45432,-1.170864 1.6,-1.4 l 1.6,-0.32 v -9.959526 -9.959526 l -1.89702,-0.685969 c -2.89751,-1.047754 -2.19189,-2.165879 2.31461,-3.667759 2.13634,-0.711977 4.23634,-1.159398 4.66667,-0.994267 0.48327,0.185447 0.7824,1.020323 0.7824,2.183642 0,2.245067 0.44694,2.347748 2.17371,0.499398 2.70904,-2.899792 5.62857,-3.61372 7.42629,-1.815993 2.15239,2.152389 0.852,6.4 -1.95933,6.4 -1.14536,0 -2.84067,-1.536948 -2.84067,-2.575328 0,-1.171711 -0.98148,-0.627077 -2.89177,1.604661 L 244.8,33.258664 v 8.36917 8.36917 l 2.13334,0.341133 c 1.65916,0.265311 2.13333,0.576817 2.13333,1.401498 0,1.00171 -0.36876,1.060364 -6.66667,1.060364 -6.33854,0 -6.66666,-0.05316 -6.66666,-1.08 z M 270.4,51.716585 c 0,-1.168682 0.28647,-1.326171 3.33334,-1.832541 l 2,-0.332387 V 31.719319 13.88698 l -1.2,-0.243363 C 270.5969,12.845304 270.4,12.753824 270.4,11.723172 c 0,-1.009098 0.38292,-1.056506 8.53334,-1.056506 8.15042,0 8.53333,0.04741 8.53333,1.056506 0,0.697563 -0.45299,1.150556 -1.33333,1.333333 -0.73333,0.152256 -1.93333,0.4014 -2.66667,0.553656 l -1.33333,0.276827 V 31.725124 49.56326 l 2.66667,0.353746 c 2.35079,0.311843 2.66666,0.503543 2.66666,1.618369 v 1.264624 h -8.53333 c -8.22172,0 -8.53334,-0.03956 -8.53334,-1.083406 z m 31.02958,-0.113378 c 0.14192,-0.996649 0.63866,-1.271014 2.97043,-1.640679 l 2.8,-0.443888 V 31.425986 13.333333 h -4.45328 -4.45328 l -3.01687,4.533333 c -2.47784,3.723348 -3.26091,4.533333 -4.38267,4.533333 -1.04131,0 -1.30584,-0.221734 -1.11347,-0.933333 0.13877,-0.513333 0.78258,-3.156492 1.43069,-5.873687 l 1.17838,-4.940353 17.90996,0.140353 17.90995,0.140354 L 329.41382,16 c 1.51175,6.35967 1.51175,6.399999 -4.2e-4,6.399999 -0.98057,0 -1.90975,-0.986444 -4.27015,-4.533333 l -3.01688,-4.533333 h -4.26318 -4.26318 v 18.07113 18.071129 l 1.2,0.321588 c 0.66,0.176873 1.86,0.324864 2.66666,0.328869 1.20695,0.006 1.46667,0.243392 1.46667,1.340616 v 1.333334 h -8.83709 -8.8371 l 0.17043,-1.196784 z M 49.075838,49.075836 c -1.112221,-1.112221 -3.004659,-1.376581 -5.507905,-0.769415 -1.242112,0.301276 -1.549556,0.169183 -1.795538,-0.771451 -0.228979,-0.87562 -0.709138,-1.134971 -2.101264,-1.134971 -1.248412,0 -1.804464,-0.246523 -1.804464,-0.8 0,-0.44 0.254165,-0.8 0.564809,-0.8 0.310645,0 0.416481,0.24 0.235191,0.533333 -0.186171,0.301232 0.250637,0.533334 1.003716,0.533334 0.733333,0 1.522408,-0.3 1.7535,-0.666667 0.27759,-0.440442 0.514495,-0.138658 0.698143,0.889334 0.356546,1.995816 1.249103,2.272871 2.687696,0.834278 1.098836,-1.098836 1.171081,-1.105284 1.867518,-0.166667 0.609088,0.820893 0.896367,0.871461 1.803879,0.317526 0.883164,-0.539073 1.028943,-0.527334 0.80181,0.06457 -0.152683,0.397885 0.14243,1.143464 0.655808,1.656841 0.888995,0.888996 0.975591,0.881326 1.819766,-0.161185 0.788549,-0.973817 0.974781,-1.006172 1.687733,-0.293218 0.712954,0.712954 0.898069,0.704699 1.677573,-0.07481 1.034432,-1.034431 1.105152,-2.040379 0.255541,-3.635061 -0.56105,-1.053074 -0.535445,-1.09465 0.266667,-0.432968 0.711653,0.587063 1.045691,0.60053 1.687317,0.06803 0.667152,-0.553687 0.8,-0.481193 0.8,0.436553 0,1.419602 0.900923,1.964941 1.890027,1.144057 0.608896,-0.505337 0.77664,-0.501819 0.77664,0.01629 0,0.398417 0.423872,0.549995 1.067403,0.381708 0.587072,-0.153522 0.932906,-0.06151 0.768522,0.204464 -0.406112,0.657109 -4.357872,0.615897 -4.769258,-0.04974 -0.5512,-0.89186 -1.333334,-0.596747 -1.333334,0.503091 0,1.290803 -1.875578,2.664453 -3.174309,2.324826 -0.534587,-0.139797 -1.133225,0.0067 -1.330308,0.32562 -0.55055,0.890807 -1.783896,0.691283 -2.952879,-0.4777 z M 78.156113,32.570185 c -0.168768,-0.273065 -0.102928,-0.622507 0.146299,-0.776539 0.249232,-0.154032 0.453147,0.06938 0.453147,0.496481 0,0.899289 -0.168182,0.977862 -0.599446,0.280058 z"
       id="path847" />
  </g>
</svg>
