<?xml version="1.0" encoding="UTF-8" standalone="no"?>
<svg
   id="Layer_2"
   data-name="Layer 2"
   viewBox="0 0 547.51997 114.48001"
   version="1.1"
   sodipodi:docname="irods.svg"
   width="547.51996"
   height="114.48001"
   inkscape:version="1.1.2 (0a00cf5339, 2022-02-04)"
   xmlns:inkscape="http://www.inkscape.org/namespaces/inkscape"
   xmlns:sodipodi="http://sodipodi.sourceforge.net/DTD/sodipodi-0.dtd"
   xmlns="http://www.w3.org/2000/svg"
   xmlns:svg="http://www.w3.org/2000/svg">
  <defs
     id="defs950" />
  <sodipodi:namedview
     id="namedview948"
     pagecolor="#ffffff"
     bordercolor="#666666"
     borderopacity="1.0"
     inkscape:pageshadow="2"
     inkscape:pageopacity="0.0"
     inkscape:pagecheckerboard="0"
     showgrid="false"
     inkscape:zoom="2.0290366"
     inkscape:cx="273.03598"
     inkscape:cy="159.18885"
     inkscape:window-width="2256"
     inkscape:window-height="1464"
     inkscape:window-x="0"
     inkscape:window-y="20"
     inkscape:window-maximized="1"
     inkscape:current-layer="Layer_2" />
  <title
     id="title925">iRODS-Logo-RTM_teal_grey</title>
  <rect
     x="-37.489998"
     width="615.73999"
     height="189.52"
     fill="none"
     id="rect927"
     y="-41.110001" />
  <rect
     y="-39.869999"
     width="615.73999"
     height="189.52"
     fill="none"
     id="rect929"
     x="-39.169998" />
  <path
     d="m 261.82,56.66 q 0,23.81 -17.09,40.8 -17.09,16.99 -40.72,17 -23.62,0 -40.72,-17 -17.1,-17 -17.09,-40.46 0,-24.12 16.68,-40.56 Q 179.56,0 204.01,0 q 23.13,0 40.5,16.89 17.37,16.89 17.31,39.77 z m -21,0 A 33.4,33.4 0 0 0 230,31.72 37.92,37.92 0 0 0 178,31.56 33.2,33.2 0 0 0 167.18,56.66 35,35 0 0 0 178,82.43 a 36.88,36.88 0 0 0 52,0 35,35 0 0 0 10.85,-25.77 z"
     fill="#5a5c61"
     id="path931" />
  <path
     d="m 388.19,57 a 53.47,53.47 0 0 1 -16.27,39.23 53.5,53.5 0 0 1 -39.23,16.26 H 284.12 V 1.82 h 48.57 A 53.63,53.63 0 0 1 371.92,18.01 53,53 0 0 1 388.19,57 Z m -21.31,0 A 34.26,34.26 0 0 0 332.69,22.8 H 305.1 v 68.72 h 27.59 A 32.82,32.82 0 0 0 356.89,81.44 33.42,33.42 0 0 0 366.88,57 Z"
     fill="#5a5c61"
     id="path933" />
  <path
     d="m 515.05,79.46 q -0.18,16.19 -12.81,25.61 -12.63,9.42 -35.73,9.41 -31.87,0 -55,-16.68 l 12,-17.19 q 18.33,12.57 42.28,12.73 14.7,-0.51 21.72,-4.13 7.02,-3.62 7.19,-9.91 0.49,-6.12 -6.93,-10 -7.42,-3.88 -23.26,-5.53 -27.92,-3 -37.33,-11.32 -9.41,-8.32 -9.26,-21.56 0.33,-14.2 13.54,-22.38 13.21,-8.18 32.38,-8.51 22.45,0 44.27,13.06 l -11.6,16.83 q -14.7,-8.59 -34.2,-8.6 a 53.85,53.85 0 0 0 -15.93,2 q -7.53,2.15 -7.19,7.59 -0.35,5 6.44,7.85 6.79,2.85 23.13,4.55 25.76,2.31 36,13 10.24,10.69 10.29,23.18 z"
     fill="#5a5c61"
     id="path935" />
  <path
     d="M 98.630002,69.06 A 35.09,35.09 0 0 0 115.81,56.33 34.27,34.27 0 0 0 112.09,11.98 33.61,33.61 0 0 0 87.400002,1.82 h -46.59 v 21 h 46.59 a 13.37,13.37 0 0 1 9.82,4 13,13 0 0 1 3.999998,9.5 13.19,13.19 0 0 1 -3.999998,9.66 13.37,13.37 0 0 1 -9.82,4 h -46.59 v 21 h 34.2 l 24.44,41.46 H 123.91 Z"
     fill="#5a5c61"
     id="path937" />
  <rect
     x="0"
     y="50.470001"
     width="20.98"
     height="62.029999"
     fill="#00bdac"
     id="rect939" />
  <rect
     x="0"
     y="1.8200003"
     width="20.98"
     height="20.98"
     fill="#00bdac"
     id="rect941" />
  <path
     d="m 537.32,100.97 a 4.42,4.42 0 0 0 2.18,-1.61 4.37,4.37 0 0 0 -3.6,-6.9 h -5.89 v 14 h 2.65 v -5.25 h 1.67 l 3.1,5.25 h 3.08 z m -1.42,-2.4 h -3.24 v -3.45 h 3.24 a 1.68,1.68 0 0 1 1.24,0.51 1.61,1.61 0 0 1 0.52,1.2 1.66,1.66 0 0 1 -0.52,1.23 1.68,1.68 0 0 1 -1.24,0.51 z"
     fill="#5a5c61"
     id="path943" />
  <path
     d="m 546.57,94.58 a 12.54,12.54 0 0 0 -22,-2.13 12.55,12.55 0 0 0 10.4,19.57 12.54,12.54 0 0 0 10.41,-5.54 12.56,12.56 0 0 0 1.15,-11.9 z m -2.44,8.74 a 10,10 0 0 1 -3.59,4.35 9.89,9.89 0 0 1 -14.64,-12.05 9.88,9.88 0 0 1 9.11,-6 10,10 0 0 1 3.85,0.78 9.91,9.91 0 0 1 4.35,3.59 9.94,9.94 0 0 1 0.92,9.38 z"
     fill="#5a5c61"
     id="path945" />
</svg>
