<?xml version="1.0" encoding="UTF-8" standalone="no"?>
<!-- Created with Inkscape (http://www.inkscape.org/) -->

<svg
   version="1.1"
   id="svg948"
   width="1501"
   height="1500"
   viewBox="0 0 1501 1500"
   sodipodi:docname="minimal-logo.svg"
   inkscape:version="1.1.1 (3bf5ae0d25, 2021-09-20, custom)"
   xmlns:inkscape="http://www.inkscape.org/namespaces/inkscape"
   xmlns:sodipodi="http://sodipodi.sourceforge.net/DTD/sodipodi-0.dtd"
   xmlns="http://www.w3.org/2000/svg"
   xmlns:svg="http://www.w3.org/2000/svg">
  <sodipodi:namedview
     id="namedview11"
     pagecolor="#ffffff"
     bordercolor="#666666"
     borderopacity="1.0"
     inkscape:pageshadow="2"
     inkscape:pageopacity="0.0"
     inkscape:pagecheckerboard="0"
     showgrid="false"
     inkscape:zoom="0.11249773"
     inkscape:cx="3551.1827"
     inkscape:cy="862.23961"
     inkscape:window-width="2256"
     inkscape:window-height="1442"
     inkscape:window-x="0"
     inkscape:window-y="42"
     inkscape:window-maximized="1"
     inkscape:current-layer="g954" />
  <defs
     id="defs952" />
  <g
     id="g954"
     transform="translate(-991.4733,-1784.1358)">
    <path
       id="path3421"
       style="opacity:1;fill:#000000;fill-opacity:1;stroke:none;stroke-width:10;stroke-linecap:round;stroke-linejoin:round"
       d="m 4777.7617,1815.9746 c -199.045,0 -389.9376,79.0176 -530.6836,219.6699 -140.7461,140.6523 -219.8164,331.4177 -219.8164,530.3301 0,198.9124 79.0703,389.6778 219.8164,530.3301 140.746,140.6523 331.6386,219.6699 530.6836,219.6699 199.045,0 389.9376,-79.0176 530.6836,-219.6699 140.7461,-140.6523 219.8164,-331.4177 219.8164,-530.3301 0,-198.9124 -79.0703,-389.6778 -219.8164,-530.3301 -140.746,-140.6523 -331.6386,-219.6699 -530.6836,-219.6699 z m -8.1523,132.9316 c 13.4861,-0.056 26.9734,0.2484 40.4394,0.9961 70.5809,3.9835 140.7162,19.6563 205.5215,48.1114 9.6551,4.3204 19.2809,8.731 28.6406,13.666 2.4249,1.3867 5.0454,2.4632 7.2442,4.2148 5.4032,4.1759 8.5673,11.1367 7.9336,17.961 -0.6095,7.4602 -5.8335,14.2509 -12.8145,16.8945 -4.457,1.7607 -9.5039,1.6727 -14.0156,0.1523 -4.6935,-1.5819 -9.1841,-3.6937 -13.7695,-5.5546 -15.3786,-6.4663 -31.0705,-12.4767 -46.8496,-17.8145 -25.7086,-8.6965 -52.0107,-15.7992 -78.6329,-20.9023 -4.37,-0.8434 -8.9175,-1.656 -13.2968,-2.3887 -10.16,-1.6971 -20.4392,-3.1134 -30.6328,-4.2344 -9.507,-1.0385 -18.9962,-1.828 -28.5254,-2.3516 -4.6198,-0.2622 -9.3888,-0.4673 -14.002,-0.6015 -12.4002,-0.3605 -24.8828,-0.2873 -37.2344,0.1543 -8.3674,0.2961 -16.8192,0.7884 -25.1093,1.418 -15.7074,1.2227 -31.371,3.0228 -46.9375,5.455 -9.9403,1.5574 -19.9759,3.4032 -29.8125,5.4727 -13.7417,2.9021 -27.4073,6.3097 -40.8633,10.209 -21.9535,6.3527 -43.5986,14.1168 -64.541,23.1113 -32.301,13.8647 -63.3477,30.8954 -92.3965,50.5352 -8.5733,5.7849 -16.9227,11.7534 -25.1719,17.9804 -10.3886,7.8674 -20.5696,16.0178 -30.4102,24.5625 -10.26,8.8731 -19.9795,18.3456 -29.5566,27.9453 -8.6937,8.7646 -17.2527,17.5571 -25.3535,26.8575 -12.1381,13.924 -23.5075,28.6088 -34.1465,43.6425 -26.1735,37.0527 -48.0529,77.2665 -64.7461,119.3907 -4.8118,12.1641 -9.2179,24.4902 -13.1445,36.9687 -1.8623,5.8859 -3.6521,11.955 -5.2988,17.9102 -4.0925,14.8151 -7.4377,29.7615 -10.3321,44.8496 0.2836,2.7348 0.2503,5.5313 -0.3183,8.2363 -2.5314,10.3096 -4.3708,20.7794 -5.7188,31.3066 -1.8076,14.315 -2.9765,28.6872 -3.75,43.0665 -0.2128,4.0597 -0.4008,8.3378 -0.543,12.3613 -0.3208,10.6925 -0.4697,21.3943 -0.2089,32.0898 0.097,4.2481 0.2897,8.6995 0.5,12.959 0.5782,10.5321 1.2407,21.0054 2.3281,31.502 14.1561,-18.5441 29.1132,-36.5145 45.416,-53.2188 9.2867,-9.395 18.8806,-18.5614 29.5273,-26.418 8.3091,-6.054 17.2822,-11.604 27.3536,-14.1191 8.1493,-2.1268 16.8439,-1.6847 24.8769,0.7324 9.1571,2.8731 18.1789,6.8516 25.4922,13.1895 4.3103,3.4841 7.5608,8.4903 8.2559,14.0527 10.7098,5.4632 21.069,11.8344 29.9414,20.0078 6.7072,6.4629 12.9609,13.379 19.1484,20.336 20.7408,23.5769 40.7061,47.8244 60.3418,72.3261 17.5376,21.9952 34.9524,44.1009 51.5156,66.8438 8.3174,11.1706 15.7372,22.9824 24.1582,34.0781 5.099,6.5873 10.3261,13.2725 17.1172,18.2149 5.612,4.1247 12.5436,6.8293 19.5879,6.3554 6.3565,-0.6083 12.4258,-2.9653 18.0117,-5.9765 0.6241,-0.3262 1.4091,-0.792 1.9102,-1.0664 1.3791,-0.8064 2.7355,-1.6488 4.0722,-2.5235 8.4077,-5.6736 16.0653,-12.3373 23.6504,-18.9844 12.2393,-10.6965 24.2699,-21.8651 38.3399,-30.1621 12.2052,-7.1234 25.9324,-12.0288 40.1211,-12.7832 9.4837,-0.6328 18.9443,1.4066 27.8242,4.6192 6.6597,2.535 13.536,4.9402 19.2578,9.3144 4.4802,3.2501 7.989,8.0277 9.0977,13.5078 6.9177,2.927 13.7119,6.1411 20.4023,9.5547 9.3472,4.562 18.086,10.2969 26.2227,16.7617 13.7792,10.8016 26.8987,22.4309 40.9023,32.9493 6.5519,4.9322 13.5452,9.3544 20.6113,13.3496 6.0072,3.4103 12.2604,6.7538 18.4512,9.9726 12.9154,6.6855 25.8554,13.2466 39.0898,19.2949 13.0762,5.9475 26.4838,10.9576 40.1329,15.3829 5.9062,1.9008 11.9751,3.7025 17.8847,5.3046 5.9646,1.6134 11.9483,3.0796 17.9141,4.3438 1.2649,0.2716 2.5808,0.5414 3.793,0.7832 8.287,1.6674 16.6781,2.7261 25.0644,3.748 3.3864,0.449 6.8011,0.8016 10.2207,0.5743 4.1021,-0.1971 8.2889,-0.6948 12.293,-1.2188 13.1331,-1.7958 26.0667,-4.6325 39.0918,-7.0215 13.8366,-2.8112 27.9297,-4.2344 42.0351,-4.6543 30.4516,-0.5921 60.9115,-0.6681 91.3672,-0.9297 7.9776,-12.1438 15.5621,-24.6444 22.6348,-37.3828 8.2568,-14.8967 15.9045,-30.2785 22.7832,-45.914 4.1672,-9.4343 8.1207,-19.1619 11.7461,-28.8086 2.2196,-5.9013 4.3391,-11.849 6.3359,-17.7754 1.988,-5.8602 3.8883,-11.8485 5.668,-17.7129 6.575,-21.7908 11.8248,-44.0066 15.7227,-66.3848 2.1175,-12.0139 3.813,-24.1365 5.1484,-36.2363 1.1145,-10.1325 2.0174,-20.4568 2.5312,-30.6504 0.2177,-4.1021 0.3456,-8.0794 0.4356,-12.1738 0.394,-18.5168 -0.032,-37.0618 -1.1035,-55.5059 -0.2335,-4.0872 -0.525,-8.2554 -0.8184,-12.2617 -0.6368,-8.0006 -1.3998,-15.9911 -2.416,-23.9531 -0.3364,-2.6388 -0.7277,-5.4106 -1.127,-7.9473 -0.6296,-4.2801 -1.6593,-8.483 -2.5586,-12.7109 -1.43,-4.1897 -2.3332,-8.7272 -1.4296,-13.1328 -2.0266,-11.2818 -4.2655,-22.5275 -6.9532,-33.6719 -3.6643,-14.5451 -7.57,-29.0234 -11.7265,-43.4141 -0.982,-4.0345 -2.6588,-7.8767 -3.4219,-11.9668 -1.7595,-8.2824 2.6296,-17.3982 10.168,-21.2324 7.6881,-4.4626 18.2783,-2.689 24.2363,3.8574 2.8736,3.26 4.8734,7.1781 6.6914,11.0957 3.9435,8.9485 7.1225,18.2101 10.2012,27.4844 6.5325,20.0893 11.9293,40.5324 16.7207,61.1016 0.1276,1.0627 0.667,1.9654 1.1328,2.9062 1.2074,2.4842 1.9105,5.1894 2.1133,7.9414 1.3609,12.8788 3.0458,25.7194 4.5957,38.5762 1.8093,14.776 3.026,29.6284 3.4648,44.5098 0.5884,22.3899 0.2315,44.8079 -1.1406,67.164 -1.8617,30.4963 -5.8636,60.8725 -12.2481,90.7559 -8.6708,40.8431 -21.8858,80.6828 -38.871,118.8125 -20.3281,45.866 -46.4148,89.1658 -77.3692,128.6426 -18.7891,24.0634 -39.5256,46.5588 -61.4336,67.8047 -15.9227,15.7103 -32.9195,30.3211 -50.7617,43.8085 -60.069,45.8421 -128.523,80.7414 -201.0605,101.9766 -29.8254,8.79 -60.3668,15.0615 -91.1758,19.2012 -17.4796,2.5328 -35.1634,3.9932 -52.8399,4.416 -22.5242,0.307 -45.0641,0.5338 -67.5781,-0.3731 -23.5817,-0.7629 -47.0506,-3.7223 -70.2324,-8.041 -25.0217,-4.5432 -49.797,-10.4852 -74.0957,-17.998 -50.1269,-15.4563 -98.2227,-37.4412 -142.7754,-65.1231 -64.0579,-39.7348 -120.7252,-91.2983 -166.4551,-151.2148 -34.9021,-45.6601 -63.4244,-96.1868 -84.4766,-149.6641 -14.8463,-37.5276 -25.8458,-76.5505 -33.1347,-116.2363 -4.5112,-23.7444 -7.5015,-47.7871 -8.7071,-71.9297 -0.9086,-20.0846 -1.3046,-40.1967 -0.9707,-60.3008 0.3166,-26.0098 3.5522,-51.8533 6.5665,-77.6543 0.6617,-5.1821 0.7091,-10.6719 3.3105,-15.3574 7.2322,-34.6269 16.9553,-68.7559 29.5254,-101.8301 18.0848,-47.7832 42.3872,-93.1654 71.7344,-134.9707 25.7745,-36.8435 55.5167,-70.9306 88.7187,-101.2617 69.4021,-63.539 153.2882,-111.325 243.627,-137.7988 53.8784,-15.7723 109.9907,-23.5977 166.0996,-24.1192 z m 442.2656,104.3633 v 0 c 6.067,-0.066 12.1383,0.1668 18.1777,0.7558 24.5904,2.2824 48.4381,11.344 68.5782,25.5918 15.5233,10.9084 28.7698,24.9802 38.916,41 8.6053,13.5483 14.9685,28.4946 19,44.0215 2.7222,10.1029 3.5373,20.6 3.6914,31.0274 0.089,9.8648 -0.067,19.7868 -1.6738,29.5429 -4.3473,23.5644 -14.4738,46.0275 -29.1543,64.959 -16.3327,21.2228 -38.7967,37.6087 -63.9043,46.8828 -13.9516,5.2242 -28.7504,7.9773 -43.6036,8.7891 -11.2138,0.7128 -28.8322,-1.5633 -42.5128,-5.722 -15.5704,-4.7332 -31.5225,-10.8637 -43.824,-21.5179 -20.6679,-17.9001 -46.2953,-67.7119 -46.2953,-67.7119 0,0 21.194,13.1234 32.1513,19.0489 10.2941,5.5669 20.6017,11.2457 31.5118,15.4798 11.2507,3.5293 21.6843,7.1756 31.844,9.1829 4.5399,0.8808 9.1319,1.5676 13.7461,1.8769 3.6565,0.2451 7.3316,0.1041 10.9942,-0.02 2.4786,-0.084 4.9568,-0.2363 7.4238,-0.4902 3.5424,-0.3646 7.1484,-0.5312 10.5801,-1.4825 11.1029,-3.0778 22.1131,-7.1949 31.8144,-13.5117 0.4208,-0.271 1.0866,-0.7301 1.4922,-0.9922 8.2137,-5.5908 15.6122,-12.3951 21.7832,-20.1875 0.6452,-0.8191 1.3792,-1.7894 1.9434,-2.5351 6.265,-8.4651 11.1876,-17.913 14.5859,-27.8789 1.5796,-4.8601 3.1953,-9.855 3.6836,-15.0196 0.4516,-8.6636 0.284,-17.3457 0.209,-26.0175 0.094,-4.4198 -0.7355,-8.7974 -1.9746,-13.0235 -2.1068,-7.5416 -5.123,-14.9116 -8.8145,-21.7207 -2.5586,-4.727 -5.5873,-9.4469 -8.8925,-13.793 -5.6412,-7.4182 -12.5579,-14.1638 -20.1934,-19.6699 -0.8763,-0.6385 -1.9069,-1.344 -2.7148,-1.8984 -6.5523,-4.4041 -13.6512,-7.9842 -21.0664,-10.6895 -2.0643,-0.757 -4.3003,-1.4764 -6.3067,-2.0449 -12.4631,-2.905 -23.7473,-5.1844 -35.4883,-3.3574 -36.0903,5.616 -66.1665,16.9305 -100.7927,42.9796 0,0 10.3688,-34.2092 21.078,-48.0291 10.4549,-13.4918 24.8582,-24.2909 40.2681,-31.6306 16.5837,-7.8988 31.1369,-11.816 53.7396,-12.1965 z"
       transform="translate(-3035.7884,-31.838783)" />
  </g>
</svg>
